<?xml version="1.0" encoding="utf-8" standalone="no"?>
<!DOCTYPE svg PUBLIC "-//W3C//DTD SVG 1.1//EN"
  "http://www.w3.org/Graphics/SVG/1.1/DTD/svg11.dtd">
<svg xmlns:xlink="http://www.w3.org/1999/xlink" width="638.988904pt" height="381.399531pt" viewBox="0 0 638.988904 381.399531" xmlns="http://www.w3.org/2000/svg" version="1.1">
 <metadata>
  <rdf:RDF xmlns:dc="http://purl.org/dc/elements/1.1/" xmlns:cc="http://creativecommons.org/ns#" xmlns:rdf="http://www.w3.org/1999/02/22-rdf-syntax-ns#">
   <cc:Work>
    <dc:type rdf:resource="http://purl.org/dc/dcmitype/StillImage"/>
    <dc:date>2026-07-17T04:05:19.714919</dc:date>
    <dc:format>image/svg+xml</dc:format>
    <dc:creator>
     <cc:Agent>
      <dc:title>Matplotlib v3.11.0, https://matplotlib.org/</dc:title>
     </cc:Agent>
    </dc:creator>
   </cc:Work>
  </rdf:RDF>
 </metadata>
 <defs>
  <style type="text/css">*{stroke-linejoin: round; stroke-linecap: butt}</style>
 </defs>
 <g id="figure_1">
  <g id="patch_1">
   <path d="M 0 381.399531 
L 638.988904 381.399531 
L 638.988904 0 
L 0 0 
z
" style="fill: #fafafa"/>
  </g>
  <g id="axes_1">
   <g id="patch_2">
    <path d="M 55.667969 343.19875 
L 626.57017 343.19875 
L 626.57017 23.837812 
L 55.667969 23.837812 
z
" style="fill: #fafafa"/>
   </g>
   <g id="matplotlib.axis_1">
    <g id="xtick_1">
     <g id="line2d_1">
      <path d="M 81.618069 343.19875 
L 81.618069 23.837812 
" clip-path="url(#p6e8e76519c)" style="fill: none; stroke: #d0d7de; stroke-opacity: 0.65; stroke-width: 0.8; stroke-linecap: square"/>
     </g>
     <g id="line2d_2">
      <defs>
       <path id="mc5455af363" d="M 0 0 
L 0 3.5 
" style="stroke: #000000; stroke-width: 0.8"/>
      </defs>
      <g>
       <use xlink:href="#mc5455af363" x="81.618069" y="343.19875" style="stroke: #000000; stroke-width: 0.8"/>
      </g>
     </g>
     <g id="text_1">
      <!-- 0 -->
      <g transform="translate(78.436819 357.796406) scale(0.1 -0.1)">
       <defs>
        <path id="DejaVuSans-13" d="M 2034 4250 
Q 1547 4250 1301 3770 
Q 1056 3291 1056 2328 
Q 1056 1369 1301 889 
Q 1547 409 2034 409 
Q 2525 409 2770 889 
Q 3016 1369 3016 2328 
Q 3016 3291 2770 3770 
Q 2525 4250 2034 4250 
z
M 2034 4750 
Q 2819 4750 3233 4129 
Q 3647 3509 3647 2328 
Q 3647 1150 3233 529 
Q 2819 -91 2034 -91 
Q 1250 -91 836 529 
Q 422 1150 422 2328 
Q 422 3509 836 4129 
Q 1250 4750 2034 4750 
z
" transform="scale(0.015625)"/>
       </defs>
       <use xlink:href="#DejaVuSans-13"/>
      </g>
     </g>
    </g>
    <g id="xtick_2">
     <g id="line2d_3">
      <path d="M 189.743486 343.19875 
L 189.743486 23.837812 
" clip-path="url(#p6e8e76519c)" style="fill: none; stroke: #d0d7de; stroke-opacity: 0.65; stroke-width: 0.8; stroke-linecap: square"/>
     </g>
     <g id="line2d_4">
      <g>
       <use xlink:href="#mc5455af363" x="189.743486" y="343.19875" style="stroke: #000000; stroke-width: 0.8"/>
      </g>
     </g>
     <g id="text_2">
      <!-- 50 -->
      <g transform="translate(183.380986 357.796406) scale(0.1 -0.1)">
       <defs>
        <path id="DejaVuSans-18" d="M 691 4666 
L 3169 4666 
L 3169 4134 
L 1269 4134 
L 1269 2991 
Q 1406 3038 1543 3061 
Q 1681 3084 1819 3084 
Q 2600 3084 3056 2656 
Q 3513 2228 3513 1497 
Q 3513 744 3044 326 
Q 2575 -91 1722 -91 
Q 1428 -91 1123 -41 
Q 819 9 494 109 
L 494 744 
Q 775 591 1075 516 
Q 1375 441 1709 441 
Q 2250 441 2565 725 
Q 2881 1009 2881 1497 
Q 2881 1984 2565 2268 
Q 2250 2553 1709 2553 
Q 1456 2553 1204 2497 
Q 953 2441 691 2322 
L 691 4666 
z
" transform="scale(0.015625)"/>
       </defs>
       <use xlink:href="#DejaVuSans-18"/>
       <use xlink:href="#DejaVuSans-13" transform="translate(63.625 0)"/>
      </g>
     </g>
    </g>
    <g id="xtick_3">
     <g id="line2d_5">
      <path d="M 297.868903 343.19875 
L 297.868903 23.837812 
" clip-path="url(#p6e8e76519c)" style="fill: none; stroke: #d0d7de; stroke-opacity: 0.65; stroke-width: 0.8; stroke-linecap: square"/>
     </g>
     <g id="line2d_6">
      <g>
       <use xlink:href="#mc5455af363" x="297.868903" y="343.19875" style="stroke: #000000; stroke-width: 0.8"/>
      </g>
     </g>
     <g id="text_3">
      <!-- 100 -->
      <g transform="translate(288.325153 357.796406) scale(0.1 -0.1)">
       <defs>
        <path id="DejaVuSans-14" d="M 794 531 
L 1825 531 
L 1825 4091 
L 703 3866 
L 703 4441 
L 1819 4666 
L 2450 4666 
L 2450 531 
L 3481 531 
L 3481 0 
L 794 0 
L 794 531 
z
" transform="scale(0.015625)"/>
       </defs>
       <use xlink:href="#DejaVuSans-14"/>
       <use xlink:href="#DejaVuSans-13" transform="translate(63.625 0)"/>
       <use xlink:href="#DejaVuSans-13" transform="translate(127.25 0)"/>
      </g>
     </g>
    </g>
    <g id="xtick_4">
     <g id="line2d_7">
      <path d="M 405.99432 343.19875 
L 405.99432 23.837812 
" clip-path="url(#p6e8e76519c)" style="fill: none; stroke: #d0d7de; stroke-opacity: 0.65; stroke-width: 0.8; stroke-linecap: square"/>
     </g>
     <g id="line2d_8">
      <g>
       <use xlink:href="#mc5455af363" x="405.99432" y="343.19875" style="stroke: #000000; stroke-width: 0.8"/>
      </g>
     </g>
     <g id="text_4">
      <!-- 150 -->
      <g transform="translate(396.45057 357.796406) scale(0.1 -0.1)">
       <use xlink:href="#DejaVuSans-14"/>
       <use xlink:href="#DejaVuSans-18" transform="translate(63.625 0)"/>
       <use xlink:href="#DejaVuSans-13" transform="translate(127.25 0)"/>
      </g>
     </g>
    </g>
    <g id="xtick_5">
     <g id="line2d_9">
      <path d="M 514.119737 343.19875 
L 514.119737 23.837812 
" clip-path="url(#p6e8e76519c)" style="fill: none; stroke: #d0d7de; stroke-opacity: 0.65; stroke-width: 0.8; stroke-linecap: square"/>
     </g>
     <g id="line2d_10">
      <g>
       <use xlink:href="#mc5455af363" x="514.119737" y="343.19875" style="stroke: #000000; stroke-width: 0.8"/>
      </g>
     </g>
     <g id="text_5">
      <!-- 200 -->
      <g transform="translate(504.575987 357.796406) scale(0.1 -0.1)">
       <defs>
        <path id="DejaVuSans-15" d="M 1228 531 
L 3431 531 
L 3431 0 
L 469 0 
L 469 531 
Q 828 903 1448 1529 
Q 2069 2156 2228 2338 
Q 2531 2678 2651 2914 
Q 2772 3150 2772 3378 
Q 2772 3750 2511 3984 
Q 2250 4219 1831 4219 
Q 1534 4219 1204 4116 
Q 875 4013 500 3803 
L 500 4441 
Q 881 4594 1212 4672 
Q 1544 4750 1819 4750 
Q 2544 4750 2975 4387 
Q 3406 4025 3406 3419 
Q 3406 3131 3298 2873 
Q 3191 2616 2906 2266 
Q 2828 2175 2409 1742 
Q 1991 1309 1228 531 
z
" transform="scale(0.015625)"/>
       </defs>
       <use xlink:href="#DejaVuSans-15"/>
       <use xlink:href="#DejaVuSans-13" transform="translate(63.625 0)"/>
       <use xlink:href="#DejaVuSans-13" transform="translate(127.25 0)"/>
      </g>
     </g>
    </g>
    <g id="xtick_6">
     <g id="line2d_11">
      <path d="M 622.245154 343.19875 
L 622.245154 23.837812 
" clip-path="url(#p6e8e76519c)" style="fill: none; stroke: #d0d7de; stroke-opacity: 0.65; stroke-width: 0.8; stroke-linecap: square"/>
     </g>
     <g id="line2d_12">
      <g>
       <use xlink:href="#mc5455af363" x="622.245154" y="343.19875" style="stroke: #000000; stroke-width: 0.8"/>
      </g>
     </g>
     <g id="text_6">
      <!-- 250 -->
      <g transform="translate(612.701404 357.796406) scale(0.1 -0.1)">
       <use xlink:href="#DejaVuSans-15"/>
       <use xlink:href="#DejaVuSans-18" transform="translate(63.625 0)"/>
       <use xlink:href="#DejaVuSans-13" transform="translate(127.25 0)"/>
      </g>
     </g>
    </g>
    <g id="text_7">
     <!-- Underlying price at expiry -->
     <g transform="translate(276.141726 371.797187) scale(0.1 -0.1)">
      <defs>
       <path id="DejaVuSans-38" d="M 556 4666 
L 1191 4666 
L 1191 1831 
Q 1191 1081 1462 751 
Q 1734 422 2344 422 
Q 2950 422 3222 751 
Q 3494 1081 3494 1831 
L 3494 4666 
L 4128 4666 
L 4128 1753 
Q 4128 841 3676 375 
Q 3225 -91 2344 -91 
Q 1459 -91 1007 375 
Q 556 841 556 1753 
L 556 4666 
z
" transform="scale(0.015625)"/>
       <path id="DejaVuSans-51" d="M 3513 2113 
L 3513 0 
L 2938 0 
L 2938 2094 
Q 2938 2591 2744 2837 
Q 2550 3084 2163 3084 
Q 1697 3084 1428 2787 
Q 1159 2491 1159 1978 
L 1159 0 
L 581 0 
L 581 3500 
L 1159 3500 
L 1159 2956 
Q 1366 3272 1645 3428 
Q 1925 3584 2291 3584 
Q 2894 3584 3203 3211 
Q 3513 2838 3513 2113 
z
" transform="scale(0.015625)"/>
       <path id="DejaVuSans-47" d="M 2906 2969 
L 2906 4863 
L 3481 4863 
L 3481 0 
L 2906 0 
L 2906 525 
Q 2725 213 2448 61 
Q 2172 -91 1784 -91 
Q 1150 -91 751 415 
Q 353 922 353 1747 
Q 353 2572 751 3078 
Q 1150 3584 1784 3584 
Q 2172 3584 2448 3432 
Q 2725 3281 2906 2969 
z
M 947 1747 
Q 947 1113 1208 752 
Q 1469 391 1925 391 
Q 2381 391 2643 752 
Q 2906 1113 2906 1747 
Q 2906 2381 2643 2742 
Q 2381 3103 1925 3103 
Q 1469 3103 1208 2742 
Q 947 2381 947 1747 
z
" transform="scale(0.015625)"/>
       <path id="DejaVuSans-48" d="M 3597 1894 
L 3597 1613 
L 953 1613 
Q 991 1019 1311 708 
Q 1631 397 2203 397 
Q 2534 397 2845 478 
Q 3156 559 3463 722 
L 3463 178 
Q 3153 47 2828 -22 
Q 2503 -91 2169 -91 
Q 1331 -91 842 396 
Q 353 884 353 1716 
Q 353 2575 817 3079 
Q 1281 3584 2069 3584 
Q 2775 3584 3186 3129 
Q 3597 2675 3597 1894 
z
M 3022 2063 
Q 3016 2534 2758 2815 
Q 2500 3097 2075 3097 
Q 1594 3097 1305 2825 
Q 1016 2553 972 2059 
L 3022 2063 
z
" transform="scale(0.015625)"/>
       <path id="DejaVuSans-55" d="M 2631 2963 
Q 2534 3019 2420 3045 
Q 2306 3072 2169 3072 
Q 1681 3072 1420 2755 
Q 1159 2438 1159 1844 
L 1159 0 
L 581 0 
L 581 3500 
L 1159 3500 
L 1159 2956 
Q 1341 3275 1631 3429 
Q 1922 3584 2338 3584 
Q 2397 3584 2469 3576 
Q 2541 3569 2628 3553 
L 2631 2963 
z
" transform="scale(0.015625)"/>
       <path id="DejaVuSans-4f" d="M 603 4863 
L 1178 4863 
L 1178 0 
L 603 0 
L 603 4863 
z
" transform="scale(0.015625)"/>
       <path id="DejaVuSans-5c" d="M 2059 -325 
Q 1816 -950 1584 -1140 
Q 1353 -1331 966 -1331 
L 506 -1331 
L 506 -850 
L 844 -850 
Q 1081 -850 1212 -737 
Q 1344 -625 1503 -206 
L 1606 56 
L 191 3500 
L 800 3500 
L 1894 763 
L 2988 3500 
L 3597 3500 
L 2059 -325 
z
" transform="scale(0.015625)"/>
       <path id="DejaVuSans-4c" d="M 603 3500 
L 1178 3500 
L 1178 0 
L 603 0 
L 603 3500 
z
M 603 4863 
L 1178 4863 
L 1178 4134 
L 603 4134 
L 603 4863 
z
" transform="scale(0.015625)"/>
       <path id="DejaVuSans-4a" d="M 2906 1791 
Q 2906 2416 2648 2759 
Q 2391 3103 1925 3103 
Q 1463 3103 1205 2759 
Q 947 2416 947 1791 
Q 947 1169 1205 825 
Q 1463 481 1925 481 
Q 2391 481 2648 825 
Q 2906 1169 2906 1791 
z
M 3481 434 
Q 3481 -459 3084 -895 
Q 2688 -1331 1869 -1331 
Q 1566 -1331 1297 -1286 
Q 1028 -1241 775 -1147 
L 775 -588 
Q 1028 -725 1275 -790 
Q 1522 -856 1778 -856 
Q 2344 -856 2625 -561 
Q 2906 -266 2906 331 
L 2906 616 
Q 2728 306 2450 153 
Q 2172 0 1784 0 
Q 1141 0 747 490 
Q 353 981 353 1791 
Q 353 2603 747 3093 
Q 1141 3584 1784 3584 
Q 2172 3584 2450 3431 
Q 2728 3278 2906 2969 
L 2906 3500 
L 3481 3500 
L 3481 434 
z
" transform="scale(0.015625)"/>
       <path id="DejaVuSans-3" transform="scale(0.015625)"/>
       <path id="DejaVuSans-53" d="M 1159 525 
L 1159 -1331 
L 581 -1331 
L 581 3500 
L 1159 3500 
L 1159 2969 
Q 1341 3281 1617 3432 
Q 1894 3584 2278 3584 
Q 2916 3584 3314 3078 
Q 3713 2572 3713 1747 
Q 3713 922 3314 415 
Q 2916 -91 2278 -91 
Q 1894 -91 1617 61 
Q 1341 213 1159 525 
z
M 3116 1747 
Q 3116 2381 2855 2742 
Q 2594 3103 2138 3103 
Q 1681 3103 1420 2742 
Q 1159 2381 1159 1747 
Q 1159 1113 1420 752 
Q 1681 391 2138 391 
Q 2594 391 2855 752 
Q 3116 1113 3116 1747 
z
" transform="scale(0.015625)"/>
       <path id="DejaVuSans-46" d="M 3122 3366 
L 3122 2828 
Q 2878 2963 2633 3030 
Q 2388 3097 2138 3097 
Q 1578 3097 1268 2742 
Q 959 2388 959 1747 
Q 959 1106 1268 751 
Q 1578 397 2138 397 
Q 2388 397 2633 464 
Q 2878 531 3122 666 
L 3122 134 
Q 2881 22 2623 -34 
Q 2366 -91 2075 -91 
Q 1284 -91 818 406 
Q 353 903 353 1747 
Q 353 2603 823 3093 
Q 1294 3584 2113 3584 
Q 2378 3584 2631 3529 
Q 2884 3475 3122 3366 
z
" transform="scale(0.015625)"/>
       <path id="DejaVuSans-44" d="M 2194 1759 
Q 1497 1759 1228 1600 
Q 959 1441 959 1056 
Q 959 750 1161 570 
Q 1363 391 1709 391 
Q 2188 391 2477 730 
Q 2766 1069 2766 1631 
L 2766 1759 
L 2194 1759 
z
M 3341 1997 
L 3341 0 
L 2766 0 
L 2766 531 
Q 2569 213 2275 61 
Q 1981 -91 1556 -91 
Q 1019 -91 701 211 
Q 384 513 384 1019 
Q 384 1609 779 1909 
Q 1175 2209 1959 2209 
L 2766 2209 
L 2766 2266 
Q 2766 2663 2505 2880 
Q 2244 3097 1772 3097 
Q 1472 3097 1187 3025 
Q 903 2953 641 2809 
L 641 3341 
Q 956 3463 1253 3523 
Q 1550 3584 1831 3584 
Q 2591 3584 2966 3190 
Q 3341 2797 3341 1997 
z
" transform="scale(0.015625)"/>
       <path id="DejaVuSans-57" d="M 1172 4494 
L 1172 3500 
L 2356 3500 
L 2356 3053 
L 1172 3053 
L 1172 1153 
Q 1172 725 1289 603 
Q 1406 481 1766 481 
L 2356 481 
L 2356 0 
L 1766 0 
Q 1100 0 847 248 
Q 594 497 594 1153 
L 594 3053 
L 172 3053 
L 172 3500 
L 594 3500 
L 594 4494 
L 1172 4494 
z
" transform="scale(0.015625)"/>
       <path id="DejaVuSans-5b" d="M 3513 3500 
L 2247 1797 
L 3578 0 
L 2900 0 
L 1881 1375 
L 863 0 
L 184 0 
L 1544 1831 
L 300 3500 
L 978 3500 
L 1906 2253 
L 2834 3500 
L 3513 3500 
z
" transform="scale(0.015625)"/>
      </defs>
      <use xlink:href="#DejaVuSans-38"/>
      <use xlink:href="#DejaVuSans-51" transform="translate(73.1875 0)"/>
      <use xlink:href="#DejaVuSans-47" transform="translate(136.5625 0)"/>
      <use xlink:href="#DejaVuSans-48" transform="translate(200.046875 0)"/>
      <use xlink:href="#DejaVuSans-55" transform="translate(261.578125 0)"/>
      <use xlink:href="#DejaVuSans-4f" transform="translate(302.6875 0)"/>
      <use xlink:href="#DejaVuSans-5c" transform="translate(330.46875 0)"/>
      <use xlink:href="#DejaVuSans-4c" transform="translate(389.65625 0)"/>
      <use xlink:href="#DejaVuSans-51" transform="translate(417.4375 0)"/>
      <use xlink:href="#DejaVuSans-4a" transform="translate(480.8125 0)"/>
      <use xlink:href="#DejaVuSans-3" transform="translate(544.296875 0)"/>
      <use xlink:href="#DejaVuSans-53" transform="translate(576.078125 0)"/>
      <use xlink:href="#DejaVuSans-55" transform="translate(639.5625 0)"/>
      <use xlink:href="#DejaVuSans-4c" transform="translate(680.671875 0)"/>
      <use xlink:href="#DejaVuSans-46" transform="translate(708.453125 0)"/>
      <use xlink:href="#DejaVuSans-48" transform="translate(763.4375 0)"/>
      <use xlink:href="#DejaVuSans-3" transform="translate(824.96875 0)"/>
      <use xlink:href="#DejaVuSans-44" transform="translate(856.75 0)"/>
      <use xlink:href="#DejaVuSans-57" transform="translate(918.03125 0)"/>
      <use xlink:href="#DejaVuSans-3" transform="translate(957.234375 0)"/>
      <use xlink:href="#DejaVuSans-48" transform="translate(989.015625 0)"/>
      <use xlink:href="#DejaVuSans-5b" transform="translate(1048.796875 0)"/>
      <use xlink:href="#DejaVuSans-53" transform="translate(1107.984375 0)"/>
      <use xlink:href="#DejaVuSans-4c" transform="translate(1171.46875 0)"/>
      <use xlink:href="#DejaVuSans-55" transform="translate(1199.25 0)"/>
      <use xlink:href="#DejaVuSans-5c" transform="translate(1240.359375 0)"/>
     </g>
    </g>
   </g>
   <g id="matplotlib.axis_2">
    <g id="ytick_1">
     <g id="line2d_13">
      <path d="M 55.667969 307.026721 
L 626.57017 307.026721 
" clip-path="url(#p6e8e76519c)" style="fill: none; stroke: #d0d7de; stroke-opacity: 0.65; stroke-width: 0.8; stroke-linecap: square"/>
     </g>
     <g id="line2d_14">
      <defs>
       <path id="mf11072819f" d="M 0 0 
L -3.5 0 
" style="stroke: #000000; stroke-width: 0.8"/>
      </defs>
      <g>
       <use xlink:href="#mf11072819f" x="55.667969" y="307.026721" style="stroke: #000000; stroke-width: 0.8"/>
      </g>
     </g>
     <g id="text_8">
      <!-- −100 -->
      <g transform="translate(21.200781 310.825549) scale(0.1 -0.1)">
       <defs>
        <path id="DejaVuSans-c9c" d="M 678 2272 
L 4684 2272 
L 4684 1741 
L 678 1741 
L 678 2272 
z
" transform="scale(0.015625)"/>
       </defs>
       <use xlink:href="#DejaVuSans-c9c"/>
       <use xlink:href="#DejaVuSans-14" transform="translate(83.796875 0)"/>
       <use xlink:href="#DejaVuSans-13" transform="translate(147.421875 0)"/>
       <use xlink:href="#DejaVuSans-13" transform="translate(211.046875 0)"/>
      </g>
     </g>
    </g>
    <g id="ytick_2">
     <g id="line2d_15">
      <path d="M 55.667969 247.533253 
L 626.57017 247.533253 
" clip-path="url(#p6e8e76519c)" style="fill: none; stroke: #d0d7de; stroke-opacity: 0.65; stroke-width: 0.8; stroke-linecap: square"/>
     </g>
     <g id="line2d_16">
      <g>
       <use xlink:href="#mf11072819f" x="55.667969" y="247.533253" style="stroke: #000000; stroke-width: 0.8"/>
      </g>
     </g>
     <g id="text_9">
      <!-- −50 -->
      <g transform="translate(27.563281 251.332081) scale(0.1 -0.1)">
       <use xlink:href="#DejaVuSans-c9c"/>
       <use xlink:href="#DejaVuSans-18" transform="translate(83.796875 0)"/>
       <use xlink:href="#DejaVuSans-13" transform="translate(147.421875 0)"/>
      </g>
     </g>
    </g>
    <g id="ytick_3">
     <g id="line2d_17">
      <path d="M 55.667969 188.039785 
L 626.57017 188.039785 
" clip-path="url(#p6e8e76519c)" style="fill: none; stroke: #d0d7de; stroke-opacity: 0.65; stroke-width: 0.8; stroke-linecap: square"/>
     </g>
     <g id="line2d_18">
      <g>
       <use xlink:href="#mf11072819f" x="55.667969" y="188.039785" style="stroke: #000000; stroke-width: 0.8"/>
      </g>
     </g>
     <g id="text_10">
      <!-- 0 -->
      <g transform="translate(42.305469 191.838613) scale(0.1 -0.1)">
       <use xlink:href="#DejaVuSans-13"/>
      </g>
     </g>
    </g>
    <g id="ytick_4">
     <g id="line2d_19">
      <path d="M 55.667969 128.546317 
L 626.57017 128.546317 
" clip-path="url(#p6e8e76519c)" style="fill: none; stroke: #d0d7de; stroke-opacity: 0.65; stroke-width: 0.8; stroke-linecap: square"/>
     </g>
     <g id="line2d_20">
      <g>
       <use xlink:href="#mf11072819f" x="55.667969" y="128.546317" style="stroke: #000000; stroke-width: 0.8"/>
      </g>
     </g>
     <g id="text_11">
      <!-- 50 -->
      <g transform="translate(35.942969 132.345145) scale(0.1 -0.1)">
       <use xlink:href="#DejaVuSans-18"/>
       <use xlink:href="#DejaVuSans-13" transform="translate(63.625 0)"/>
      </g>
     </g>
    </g>
    <g id="ytick_5">
     <g id="line2d_21">
      <path d="M 55.667969 69.052848 
L 626.57017 69.052848 
" clip-path="url(#p6e8e76519c)" style="fill: none; stroke: #d0d7de; stroke-opacity: 0.65; stroke-width: 0.8; stroke-linecap: square"/>
     </g>
     <g id="line2d_22">
      <g>
       <use xlink:href="#mf11072819f" x="55.667969" y="69.052848" style="stroke: #000000; stroke-width: 0.8"/>
      </g>
     </g>
     <g id="text_12">
      <!-- 100 -->
      <g transform="translate(29.580469 72.851676) scale(0.1 -0.1)">
       <use xlink:href="#DejaVuSans-14"/>
       <use xlink:href="#DejaVuSans-13" transform="translate(63.625 0)"/>
       <use xlink:href="#DejaVuSans-13" transform="translate(127.25 0)"/>
      </g>
     </g>
    </g>
    <g id="text_13">
     <!-- Net profit -->
     <g transform="translate(14.798438 207.172969) rotate(-90) scale(0.1 -0.1)">
      <defs>
       <path id="DejaVuSans-31" d="M 628 4666 
L 1478 4666 
L 3547 763 
L 3547 4666 
L 4159 4666 
L 4159 0 
L 3309 0 
L 1241 3903 
L 1241 0 
L 628 0 
L 628 4666 
z
" transform="scale(0.015625)"/>
       <path id="DejaVuSans-52" d="M 1959 3097 
Q 1497 3097 1228 2736 
Q 959 2375 959 1747 
Q 959 1119 1226 758 
Q 1494 397 1959 397 
Q 2419 397 2687 759 
Q 2956 1122 2956 1747 
Q 2956 2369 2687 2733 
Q 2419 3097 1959 3097 
z
M 1959 3584 
Q 2709 3584 3137 3096 
Q 3566 2609 3566 1747 
Q 3566 888 3137 398 
Q 2709 -91 1959 -91 
Q 1206 -91 779 398 
Q 353 888 353 1747 
Q 353 2609 779 3096 
Q 1206 3584 1959 3584 
z
" transform="scale(0.015625)"/>
       <path id="DejaVuSans-13af" d="M 3431 3500 
L 3431 0 
L 2853 0 
L 2853 3053 
L 1275 3053 
L 1275 0 
L 697 0 
L 697 3053 
L 147 3053 
L 147 3500 
L 697 3500 
L 697 3744 
Q 697 4316 967 4589 
Q 1238 4863 1797 4863 
L 2375 4863 
L 2375 4384 
L 1825 4384 
Q 1516 4384 1395 4259 
Q 1275 4134 1275 3809 
L 1275 3500 
L 3431 3500 
z
M 2853 4856 
L 3431 4856 
L 3431 4128 
L 2853 4128 
L 2853 4856 
z
" transform="scale(0.015625)"/>
      </defs>
      <use xlink:href="#DejaVuSans-31"/>
      <use xlink:href="#DejaVuSans-48" transform="translate(74.8125 0)"/>
      <use xlink:href="#DejaVuSans-57" transform="translate(136.34375 0)"/>
      <use xlink:href="#DejaVuSans-3" transform="translate(175.546875 0)"/>
      <use xlink:href="#DejaVuSans-53" transform="translate(207.328125 0)"/>
      <use xlink:href="#DejaVuSans-55" transform="translate(270.8125 0)"/>
      <use xlink:href="#DejaVuSans-52" transform="translate(309.71875 0)"/>
      <use xlink:href="#DejaVuSans-13af" transform="translate(370.90625 0)"/>
      <use xlink:href="#DejaVuSans-57" transform="translate(433.890625 0)"/>
     </g>
    </g>
   </g>
   <g id="line2d_23">
    <path d="M 81.618069 190.895471 
L 319.320986 190.895471 
L 321.396994 189.848386 
L 341.11907 178.996778 
L 600.62007 178.996778 
L 600.62007 178.996778 
" clip-path="url(#p6e8e76519c)" style="fill: none; stroke: #0f4c81; stroke-width: 2.2; stroke-linecap: square"/>
   </g>
   <g id="line2d_24">
    <path d="M 81.618069 193.037236 
L 319.320986 193.037236 
L 321.396994 191.990151 
L 600.62007 38.354219 
L 600.62007 38.354219 
" clip-path="url(#p6e8e76519c)" style="fill: none; stroke: #e07a5f; stroke-width: 2.2; stroke-linecap: square"/>
   </g>
   <g id="line2d_25">
    <path d="M 81.618069 185.89802 
L 341.11907 185.89802 
L 600.62007 328.682344 
L 600.62007 328.682344 
" clip-path="url(#p6e8e76519c)" style="fill: none; stroke: #3d9970; stroke-width: 2.2; stroke-linecap: square"/>
   </g>
   <g id="line2d_26">
    <path d="M 55.667969 188.039785 
L 626.57017 188.039785 
" clip-path="url(#p6e8e76519c)" style="fill: none; stroke-dasharray: 3.7,1.6; stroke-dashoffset: 0; stroke: #d0d7de"/>
   </g>
   <g id="line2d_27">
    <path d="M 324.684006 343.19875 
L 324.684006 23.837812 
" clip-path="url(#p6e8e76519c)" style="fill: none; stroke-dasharray: 1,1.65; stroke-dashoffset: 0; stroke: #e07a5f"/>
   </g>
   <g id="patch_3">
    <path d="M 55.667969 343.19875 
L 55.667969 23.837812 
" style="fill: none; stroke: #d0d7de; stroke-width: 0.8; stroke-linejoin: miter; stroke-linecap: square"/>
   </g>
   <g id="patch_4">
    <path d="M 626.57017 343.19875 
L 626.57017 23.837812 
" style="fill: none; stroke: #d0d7de; stroke-width: 0.8; stroke-linejoin: miter; stroke-linecap: square"/>
   </g>
   <g id="patch_5">
    <path d="M 55.667969 343.19875 
L 626.57017 343.19875 
" style="fill: none; stroke: #d0d7de; stroke-width: 0.8; stroke-linejoin: miter; stroke-linecap: square"/>
   </g>
   <g id="patch_6">
    <path d="M 55.667969 23.837812 
L 626.57017 23.837812 
" style="fill: none; stroke: #d0d7de; stroke-width: 0.8; stroke-linejoin: miter; stroke-linecap: square"/>
   </g>
   <g id="text_14">
    <!-- Option strategy payoff profile -->
    <g transform="translate(237.792507 17.837812) scale(0.14 -0.14)">
     <defs>
      <path id="DejaVuSans-32" d="M 2522 4238 
Q 1834 4238 1429 3725 
Q 1025 3213 1025 2328 
Q 1025 1447 1429 934 
Q 1834 422 2522 422 
Q 3209 422 3611 934 
Q 4013 1447 4013 2328 
Q 4013 3213 3611 3725 
Q 3209 4238 2522 4238 
z
M 2522 4750 
Q 3503 4750 4090 4092 
Q 4678 3434 4678 2328 
Q 4678 1225 4090 567 
Q 3503 -91 2522 -91 
Q 1538 -91 948 565 
Q 359 1222 359 2328 
Q 359 3434 948 4092 
Q 1538 4750 2522 4750 
z
" transform="scale(0.015625)"/>
      <path id="DejaVuSans-56" d="M 2834 3397 
L 2834 2853 
Q 2591 2978 2328 3040 
Q 2066 3103 1784 3103 
Q 1356 3103 1142 2972 
Q 928 2841 928 2578 
Q 928 2378 1081 2264 
Q 1234 2150 1697 2047 
L 1894 2003 
Q 2506 1872 2764 1633 
Q 3022 1394 3022 966 
Q 3022 478 2636 193 
Q 2250 -91 1575 -91 
Q 1294 -91 989 -36 
Q 684 19 347 128 
L 347 722 
Q 666 556 975 473 
Q 1284 391 1588 391 
Q 1994 391 2212 530 
Q 2431 669 2431 922 
Q 2431 1156 2273 1281 
Q 2116 1406 1581 1522 
L 1381 1569 
Q 847 1681 609 1914 
Q 372 2147 372 2553 
Q 372 3047 722 3315 
Q 1072 3584 1716 3584 
Q 2034 3584 2315 3537 
Q 2597 3491 2834 3397 
z
" transform="scale(0.015625)"/>
      <path id="DejaVuSans-13ae" d="M 4531 4863 
L 4531 4384 
L 3981 4384 
Q 3672 4384 3551 4259 
Q 3431 4134 3431 3809 
L 3431 3500 
L 4378 3500 
L 4378 3053 
L 3431 3053 
L 3431 0 
L 2853 0 
L 2853 3053 
L 1275 3053 
L 1275 0 
L 697 0 
L 697 3053 
L 147 3053 
L 147 3500 
L 697 3500 
L 697 3744 
Q 697 4328 969 4595 
Q 1241 4863 1831 4863 
L 2375 4863 
L 2375 4384 
L 1825 4384 
Q 1516 4384 1394 4259 
Q 1275 4134 1275 3809 
L 1275 3500 
L 2853 3500 
L 2853 3744 
Q 2853 4328 3125 4595 
Q 3397 4863 3988 4863 
L 4531 4863 
z
" transform="scale(0.015625)"/>
     </defs>
     <use xlink:href="#DejaVuSans-32"/>
     <use xlink:href="#DejaVuSans-53" transform="translate(78.71875 0)"/>
     <use xlink:href="#DejaVuSans-57" transform="translate(142.203125 0)"/>
     <use xlink:href="#DejaVuSans-4c" transform="translate(181.40625 0)"/>
     <use xlink:href="#DejaVuSans-52" transform="translate(209.1875 0)"/>
     <use xlink:href="#DejaVuSans-51" transform="translate(270.375 0)"/>
     <use xlink:href="#DejaVuSans-3" transform="translate(333.75 0)"/>
     <use xlink:href="#DejaVuSans-56" transform="translate(365.53125 0)"/>
     <use xlink:href="#DejaVuSans-57" transform="translate(417.625 0)"/>
     <use xlink:href="#DejaVuSans-55" transform="translate(456.828125 0)"/>
     <use xlink:href="#DejaVuSans-44" transform="translate(497.9375 0)"/>
     <use xlink:href="#DejaVuSans-57" transform="translate(559.21875 0)"/>
     <use xlink:href="#DejaVuSans-48" transform="translate(598.421875 0)"/>
     <use xlink:href="#DejaVuSans-4a" transform="translate(659.953125 0)"/>
     <use xlink:href="#DejaVuSans-5c" transform="translate(723.4375 0)"/>
     <use xlink:href="#DejaVuSans-3" transform="translate(782.625 0)"/>
     <use xlink:href="#DejaVuSans-53" transform="translate(814.40625 0)"/>
     <use xlink:href="#DejaVuSans-44" transform="translate(877.890625 0)"/>
     <use xlink:href="#DejaVuSans-5c" transform="translate(939.171875 0)"/>
     <use xlink:href="#DejaVuSans-52" transform="translate(998.359375 0)"/>
     <use xlink:href="#DejaVuSans-13ae" transform="translate(1059.546875 0)"/>
     <use xlink:href="#DejaVuSans-3" transform="translate(1128.4375 0)"/>
     <use xlink:href="#DejaVuSans-53" transform="translate(1160.21875 0)"/>
     <use xlink:href="#DejaVuSans-55" transform="translate(1223.703125 0)"/>
     <use xlink:href="#DejaVuSans-52" transform="translate(1262.609375 0)"/>
     <use xlink:href="#DejaVuSans-13af" transform="translate(1323.796875 0)"/>
     <use xlink:href="#DejaVuSans-4f" transform="translate(1386.78125 0)"/>
     <use xlink:href="#DejaVuSans-48" transform="translate(1414.5625 0)"/>
    </g>
   </g>
   <g id="legend_1">
    <g id="patch_7">
     <path d="M 62.667969 76.840156 
L 208.730469 76.840156 
Q 210.730469 76.840156 210.730469 74.840156 
L 210.730469 30.837813 
Q 210.730469 28.837813 208.730469 28.837813 
L 62.667969 28.837813 
Q 60.667969 28.837813 60.667969 30.837813 
L 60.667969 74.840156 
Q 60.667969 76.840156 62.667969 76.840156 
z
" style="fill: #ffffff; opacity: 0.8; stroke: #cccccc; stroke-linejoin: miter"/>
    </g>
    <g id="line2d_28">
     <path d="M 64.667969 36.93625 
L 74.667969 36.93625 
L 84.667969 36.93625 
" style="fill: none; stroke: #0f4c81; stroke-width: 2.2; stroke-linecap: square"/>
    </g>
    <g id="text_15">
     <!-- Net profit -->
     <g transform="translate(92.667969 40.43625) scale(0.1 -0.1)">
      <use xlink:href="#DejaVuSans-31"/>
      <use xlink:href="#DejaVuSans-48" transform="translate(74.8125 0)"/>
      <use xlink:href="#DejaVuSans-57" transform="translate(136.34375 0)"/>
      <use xlink:href="#DejaVuSans-3" transform="translate(175.546875 0)"/>
      <use xlink:href="#DejaVuSans-53" transform="translate(207.328125 0)"/>
      <use xlink:href="#DejaVuSans-55" transform="translate(270.8125 0)"/>
      <use xlink:href="#DejaVuSans-52" transform="translate(309.71875 0)"/>
      <use xlink:href="#DejaVuSans-13af" transform="translate(370.90625 0)"/>
      <use xlink:href="#DejaVuSans-57" transform="translate(433.890625 0)"/>
     </g>
    </g>
    <g id="line2d_29">
     <path d="M 64.667969 51.937031 
L 74.667969 51.937031 
L 84.667969 51.937031 
" style="fill: none; stroke: #e07a5f; stroke-width: 2.2; stroke-linecap: square"/>
    </g>
    <g id="text_16">
     <!-- 1 Long Call K=110 x 1 -->
     <g transform="translate(92.667969 55.437031) scale(0.1 -0.1)">
      <defs>
       <path id="DejaVuSans-2f" d="M 628 4666 
L 1259 4666 
L 1259 531 
L 3531 531 
L 3531 0 
L 628 0 
L 628 4666 
z
" transform="scale(0.015625)"/>
       <path id="DejaVuSans-26" d="M 4122 4306 
L 4122 3641 
Q 3803 3938 3442 4084 
Q 3081 4231 2675 4231 
Q 1875 4231 1450 3742 
Q 1025 3253 1025 2328 
Q 1025 1406 1450 917 
Q 1875 428 2675 428 
Q 3081 428 3442 575 
Q 3803 722 4122 1019 
L 4122 359 
Q 3791 134 3420 21 
Q 3050 -91 2638 -91 
Q 1578 -91 968 557 
Q 359 1206 359 2328 
Q 359 3453 968 4101 
Q 1578 4750 2638 4750 
Q 3056 4750 3426 4639 
Q 3797 4528 4122 4306 
z
" transform="scale(0.015625)"/>
       <path id="DejaVuSans-2e" d="M 628 4666 
L 1259 4666 
L 1259 2694 
L 3353 4666 
L 4166 4666 
L 1850 2491 
L 4331 0 
L 3500 0 
L 1259 2247 
L 1259 0 
L 628 0 
L 628 4666 
z
" transform="scale(0.015625)"/>
       <path id="DejaVuSans-20" d="M 678 2906 
L 4684 2906 
L 4684 2381 
L 678 2381 
L 678 2906 
z
M 678 1631 
L 4684 1631 
L 4684 1100 
L 678 1100 
L 678 1631 
z
" transform="scale(0.015625)"/>
      </defs>
      <use xlink:href="#DejaVuSans-14"/>
      <use xlink:href="#DejaVuSans-3" transform="translate(63.625 0)"/>
      <use xlink:href="#DejaVuSans-2f" transform="translate(95.40625 0)"/>
      <use xlink:href="#DejaVuSans-52" transform="translate(149.375 0)"/>
      <use xlink:href="#DejaVuSans-51" transform="translate(210.5625 0)"/>
      <use xlink:href="#DejaVuSans-4a" transform="translate(273.9375 0)"/>
      <use xlink:href="#DejaVuSans-3" transform="translate(337.421875 0)"/>
      <use xlink:href="#DejaVuSans-26" transform="translate(369.203125 0)"/>
      <use xlink:href="#DejaVuSans-44" transform="translate(439.03125 0)"/>
      <use xlink:href="#DejaVuSans-4f" transform="translate(500.3125 0)"/>
      <use xlink:href="#DejaVuSans-4f" transform="translate(528.09375 0)"/>
      <use xlink:href="#DejaVuSans-3" transform="translate(555.875 0)"/>
      <use xlink:href="#DejaVuSans-2e" transform="translate(587.65625 0)"/>
      <use xlink:href="#DejaVuSans-20" transform="translate(653.234375 0)"/>
      <use xlink:href="#DejaVuSans-14" transform="translate(737.03125 0)"/>
      <use xlink:href="#DejaVuSans-14" transform="translate(800.65625 0)"/>
      <use xlink:href="#DejaVuSans-13" transform="translate(864.28125 0)"/>
      <use xlink:href="#DejaVuSans-3" transform="translate(927.90625 0)"/>
      <use xlink:href="#DejaVuSans-5b" transform="translate(959.6875 0)"/>
      <use xlink:href="#DejaVuSans-3" transform="translate(1018.875 0)"/>
      <use xlink:href="#DejaVuSans-14" transform="translate(1050.65625 0)"/>
     </g>
    </g>
    <g id="line2d_30">
     <path d="M 64.667969 66.937813 
L 74.667969 66.937813 
L 84.667969 66.937813 
" style="fill: none; stroke: #3d9970; stroke-width: 2.2; stroke-linecap: square"/>
    </g>
    <g id="text_17">
     <!-- 2 Short Call K=120 x 1 -->
     <g transform="translate(92.667969 70.437813) scale(0.1 -0.1)">
      <defs>
       <path id="DejaVuSans-36" d="M 3425 4513 
L 3425 3897 
Q 3066 4069 2747 4153 
Q 2428 4238 2131 4238 
Q 1616 4238 1336 4038 
Q 1056 3838 1056 3469 
Q 1056 3159 1242 3001 
Q 1428 2844 1947 2747 
L 2328 2669 
Q 3034 2534 3370 2195 
Q 3706 1856 3706 1288 
Q 3706 609 3251 259 
Q 2797 -91 1919 -91 
Q 1588 -91 1214 -16 
Q 841 59 441 206 
L 441 856 
Q 825 641 1194 531 
Q 1563 422 1919 422 
Q 2459 422 2753 634 
Q 3047 847 3047 1241 
Q 3047 1584 2836 1778 
Q 2625 1972 2144 2069 
L 1759 2144 
Q 1053 2284 737 2584 
Q 422 2884 422 3419 
Q 422 4038 858 4394 
Q 1294 4750 2059 4750 
Q 2388 4750 2728 4690 
Q 3069 4631 3425 4513 
z
" transform="scale(0.015625)"/>
       <path id="DejaVuSans-4b" d="M 3513 2113 
L 3513 0 
L 2938 0 
L 2938 2094 
Q 2938 2591 2744 2837 
Q 2550 3084 2163 3084 
Q 1697 3084 1428 2787 
Q 1159 2491 1159 1978 
L 1159 0 
L 581 0 
L 581 4863 
L 1159 4863 
L 1159 2956 
Q 1366 3272 1645 3428 
Q 1925 3584 2291 3584 
Q 2894 3584 3203 3211 
Q 3513 2838 3513 2113 
z
" transform="scale(0.015625)"/>
      </defs>
      <use xlink:href="#DejaVuSans-15"/>
      <use xlink:href="#DejaVuSans-3" transform="translate(63.625 0)"/>
      <use xlink:href="#DejaVuSans-36" transform="translate(95.40625 0)"/>
      <use xlink:href="#DejaVuSans-4b" transform="translate(158.890625 0)"/>
      <use xlink:href="#DejaVuSans-52" transform="translate(222.265625 0)"/>
      <use xlink:href="#DejaVuSans-55" transform="translate(283.453125 0)"/>
      <use xlink:href="#DejaVuSans-57" transform="translate(324.5625 0)"/>
      <use xlink:href="#DejaVuSans-3" transform="translate(363.765625 0)"/>
      <use xlink:href="#DejaVuSans-26" transform="translate(395.546875 0)"/>
      <use xlink:href="#DejaVuSans-44" transform="translate(465.375 0)"/>
      <use xlink:href="#DejaVuSans-4f" transform="translate(526.65625 0)"/>
      <use xlink:href="#DejaVuSans-4f" transform="translate(554.4375 0)"/>
      <use xlink:href="#DejaVuSans-3" transform="translate(582.21875 0)"/>
      <use xlink:href="#DejaVuSans-2e" transform="translate(614 0)"/>
      <use xlink:href="#DejaVuSans-20" transform="translate(679.578125 0)"/>
      <use xlink:href="#DejaVuSans-14" transform="translate(763.375 0)"/>
      <use xlink:href="#DejaVuSans-15" transform="translate(827 0)"/>
      <use xlink:href="#DejaVuSans-13" transform="translate(890.625 0)"/>
      <use xlink:href="#DejaVuSans-3" transform="translate(954.25 0)"/>
      <use xlink:href="#DejaVuSans-5b" transform="translate(986.03125 0)"/>
      <use xlink:href="#DejaVuSans-3" transform="translate(1045.21875 0)"/>
      <use xlink:href="#DejaVuSans-14" transform="translate(1077 0)"/>
     </g>
    </g>
   </g>
  </g>
 </g>
 <defs>
  <clipPath id="p6e8e76519c">
   <rect x="55.667969" y="23.837812" width="570.902202" height="319.360937"/>
  </clipPath>
 </defs>
</svg>
