<?xml version="1.0" encoding="utf-8" standalone="no"?>
<!DOCTYPE svg PUBLIC "-//W3C//DTD SVG 1.1//EN"
  "http://www.w3.org/Graphics/SVG/1.1/DTD/svg11.dtd">
<svg xmlns:xlink="http://www.w3.org/1999/xlink" width="640.04375pt" height="381.399531pt" viewBox="0 0 640.04375 381.399531" xmlns="http://www.w3.org/2000/svg" version="1.1">
 <metadata>
  <rdf:RDF xmlns:dc="http://purl.org/dc/elements/1.1/" xmlns:cc="http://creativecommons.org/ns#" xmlns:rdf="http://www.w3.org/1999/02/22-rdf-syntax-ns#">
   <cc:Work>
    <dc:type rdf:resource="http://purl.org/dc/dcmitype/StillImage"/>
    <dc:date>2026-07-17T04:04:49.035251</dc:date>
    <dc:format>image/svg+xml</dc:format>
    <dc:creator>
     <cc:Agent>
      <dc:title>Matplotlib v3.11.0, https://matplotlib.org/</dc:title>
     </cc:Agent>
    </dc:creator>
   </cc:Work>
  </rdf:RDF>
 </metadata>
 <defs>
  <style type="text/css">*{stroke-linejoin: round; stroke-linecap: butt}</style>
 </defs>
 <g id="figure_1">
  <g id="patch_1">
   <path d="M 0 381.399531 
L 640.04375 381.399531 
L 640.04375 0 
L 0 0 
z
" style="fill: #fafafa"/>
  </g>
  <g id="axes_1">
   <g id="patch_2">
    <path d="M 58.846094 343.19875 
L 632.84375 343.19875 
L 632.84375 23.837812 
L 58.846094 23.837812 
z
" style="fill: #fafafa"/>
   </g>
   <g id="matplotlib.axis_1">
    <g id="xtick_1">
     <g id="line2d_1">
      <path d="M 122.209471 343.19875 
L 122.209471 23.837812 
" clip-path="url(#p1dc5d43974)" style="fill: none; stroke: #d0d7de; stroke-opacity: 0.65; stroke-width: 0.8; stroke-linecap: square"/>
     </g>
     <g id="line2d_2">
      <defs>
       <path id="meaedc9cf5f" d="M 0 0 
L 0 3.5 
" style="stroke: #000000; stroke-width: 0.8"/>
      </defs>
      <g>
       <use xlink:href="#meaedc9cf5f" x="122.209471" y="343.19875" style="stroke: #000000; stroke-width: 0.8"/>
      </g>
     </g>
     <g id="text_1">
      <!-- 60 -->
      <g transform="translate(115.846971 357.796406) scale(0.1 -0.1)">
       <defs>
        <path id="DejaVuSans-19" d="M 2113 2584 
Q 1688 2584 1439 2293 
Q 1191 2003 1191 1497 
Q 1191 994 1439 701 
Q 1688 409 2113 409 
Q 2538 409 2786 701 
Q 3034 994 3034 1497 
Q 3034 2003 2786 2293 
Q 2538 2584 2113 2584 
z
M 3366 4563 
L 3366 3988 
Q 3128 4100 2886 4159 
Q 2644 4219 2406 4219 
Q 1781 4219 1451 3797 
Q 1122 3375 1075 2522 
Q 1259 2794 1537 2939 
Q 1816 3084 2150 3084 
Q 2853 3084 3261 2657 
Q 3669 2231 3669 1497 
Q 3669 778 3244 343 
Q 2819 -91 2113 -91 
Q 1303 -91 875 529 
Q 447 1150 447 2328 
Q 447 3434 972 4092 
Q 1497 4750 2381 4750 
Q 2619 4750 2861 4703 
Q 3103 4656 3366 4563 
z
" transform="scale(0.015625)"/>
        <path id="DejaVuSans-13" d="M 2034 4250 
Q 1547 4250 1301 3770 
Q 1056 3291 1056 2328 
Q 1056 1369 1301 889 
Q 1547 409 2034 409 
Q 2525 409 2770 889 
Q 3016 1369 3016 2328 
Q 3016 3291 2770 3770 
Q 2525 4250 2034 4250 
z
M 2034 4750 
Q 2819 4750 3233 4129 
Q 3647 3509 3647 2328 
Q 3647 1150 3233 529 
Q 2819 -91 2034 -91 
Q 1250 -91 836 529 
Q 422 1150 422 2328 
Q 422 3509 836 4129 
Q 1250 4750 2034 4750 
z
" transform="scale(0.015625)"/>
       </defs>
       <use xlink:href="#DejaVuSans-19"/>
       <use xlink:href="#DejaVuSans-13" transform="translate(63.625 0)"/>
      </g>
     </g>
    </g>
    <g id="xtick_2">
     <g id="line2d_3">
      <path d="M 221.603005 343.19875 
L 221.603005 23.837812 
" clip-path="url(#p1dc5d43974)" style="fill: none; stroke: #d0d7de; stroke-opacity: 0.65; stroke-width: 0.8; stroke-linecap: square"/>
     </g>
     <g id="line2d_4">
      <g>
       <use xlink:href="#meaedc9cf5f" x="221.603005" y="343.19875" style="stroke: #000000; stroke-width: 0.8"/>
      </g>
     </g>
     <g id="text_2">
      <!-- 80 -->
      <g transform="translate(215.240505 357.796406) scale(0.1 -0.1)">
       <defs>
        <path id="DejaVuSans-1b" d="M 2034 2216 
Q 1584 2216 1326 1975 
Q 1069 1734 1069 1313 
Q 1069 891 1326 650 
Q 1584 409 2034 409 
Q 2484 409 2743 651 
Q 3003 894 3003 1313 
Q 3003 1734 2745 1975 
Q 2488 2216 2034 2216 
z
M 1403 2484 
Q 997 2584 770 2862 
Q 544 3141 544 3541 
Q 544 4100 942 4425 
Q 1341 4750 2034 4750 
Q 2731 4750 3128 4425 
Q 3525 4100 3525 3541 
Q 3525 3141 3298 2862 
Q 3072 2584 2669 2484 
Q 3125 2378 3379 2068 
Q 3634 1759 3634 1313 
Q 3634 634 3220 271 
Q 2806 -91 2034 -91 
Q 1263 -91 848 271 
Q 434 634 434 1313 
Q 434 1759 690 2068 
Q 947 2378 1403 2484 
z
M 1172 3481 
Q 1172 3119 1398 2916 
Q 1625 2713 2034 2713 
Q 2441 2713 2670 2916 
Q 2900 3119 2900 3481 
Q 2900 3844 2670 4047 
Q 2441 4250 2034 4250 
Q 1625 4250 1398 4047 
Q 1172 3844 1172 3481 
z
" transform="scale(0.015625)"/>
       </defs>
       <use xlink:href="#DejaVuSans-1b"/>
       <use xlink:href="#DejaVuSans-13" transform="translate(63.625 0)"/>
      </g>
     </g>
    </g>
    <g id="xtick_3">
     <g id="line2d_5">
      <path d="M 320.996538 343.19875 
L 320.996538 23.837812 
" clip-path="url(#p1dc5d43974)" style="fill: none; stroke: #d0d7de; stroke-opacity: 0.65; stroke-width: 0.8; stroke-linecap: square"/>
     </g>
     <g id="line2d_6">
      <g>
       <use xlink:href="#meaedc9cf5f" x="320.996538" y="343.19875" style="stroke: #000000; stroke-width: 0.8"/>
      </g>
     </g>
     <g id="text_3">
      <!-- 100 -->
      <g transform="translate(311.452788 357.796406) scale(0.1 -0.1)">
       <defs>
        <path id="DejaVuSans-14" d="M 794 531 
L 1825 531 
L 1825 4091 
L 703 3866 
L 703 4441 
L 1819 4666 
L 2450 4666 
L 2450 531 
L 3481 531 
L 3481 0 
L 794 0 
L 794 531 
z
" transform="scale(0.015625)"/>
       </defs>
       <use xlink:href="#DejaVuSans-14"/>
       <use xlink:href="#DejaVuSans-13" transform="translate(63.625 0)"/>
       <use xlink:href="#DejaVuSans-13" transform="translate(127.25 0)"/>
      </g>
     </g>
    </g>
    <g id="xtick_4">
     <g id="line2d_7">
      <path d="M 420.390072 343.19875 
L 420.390072 23.837812 
" clip-path="url(#p1dc5d43974)" style="fill: none; stroke: #d0d7de; stroke-opacity: 0.65; stroke-width: 0.8; stroke-linecap: square"/>
     </g>
     <g id="line2d_8">
      <g>
       <use xlink:href="#meaedc9cf5f" x="420.390072" y="343.19875" style="stroke: #000000; stroke-width: 0.8"/>
      </g>
     </g>
     <g id="text_4">
      <!-- 120 -->
      <g transform="translate(410.846322 357.796406) scale(0.1 -0.1)">
       <defs>
        <path id="DejaVuSans-15" d="M 1228 531 
L 3431 531 
L 3431 0 
L 469 0 
L 469 531 
Q 828 903 1448 1529 
Q 2069 2156 2228 2338 
Q 2531 2678 2651 2914 
Q 2772 3150 2772 3378 
Q 2772 3750 2511 3984 
Q 2250 4219 1831 4219 
Q 1534 4219 1204 4116 
Q 875 4013 500 3803 
L 500 4441 
Q 881 4594 1212 4672 
Q 1544 4750 1819 4750 
Q 2544 4750 2975 4387 
Q 3406 4025 3406 3419 
Q 3406 3131 3298 2873 
Q 3191 2616 2906 2266 
Q 2828 2175 2409 1742 
Q 1991 1309 1228 531 
z
" transform="scale(0.015625)"/>
       </defs>
       <use xlink:href="#DejaVuSans-14"/>
       <use xlink:href="#DejaVuSans-15" transform="translate(63.625 0)"/>
       <use xlink:href="#DejaVuSans-13" transform="translate(127.25 0)"/>
      </g>
     </g>
    </g>
    <g id="xtick_5">
     <g id="line2d_9">
      <path d="M 519.783606 343.19875 
L 519.783606 23.837812 
" clip-path="url(#p1dc5d43974)" style="fill: none; stroke: #d0d7de; stroke-opacity: 0.65; stroke-width: 0.8; stroke-linecap: square"/>
     </g>
     <g id="line2d_10">
      <g>
       <use xlink:href="#meaedc9cf5f" x="519.783606" y="343.19875" style="stroke: #000000; stroke-width: 0.8"/>
      </g>
     </g>
     <g id="text_5">
      <!-- 140 -->
      <g transform="translate(510.239856 357.796406) scale(0.1 -0.1)">
       <defs>
        <path id="DejaVuSans-17" d="M 2419 4116 
L 825 1625 
L 2419 1625 
L 2419 4116 
z
M 2253 4666 
L 3047 4666 
L 3047 1625 
L 3713 1625 
L 3713 1100 
L 3047 1100 
L 3047 0 
L 2419 0 
L 2419 1100 
L 313 1100 
L 313 1709 
L 2253 4666 
z
" transform="scale(0.015625)"/>
       </defs>
       <use xlink:href="#DejaVuSans-14"/>
       <use xlink:href="#DejaVuSans-17" transform="translate(63.625 0)"/>
       <use xlink:href="#DejaVuSans-13" transform="translate(127.25 0)"/>
      </g>
     </g>
    </g>
    <g id="xtick_6">
     <g id="line2d_11">
      <path d="M 619.177139 343.19875 
L 619.177139 23.837812 
" clip-path="url(#p1dc5d43974)" style="fill: none; stroke: #d0d7de; stroke-opacity: 0.65; stroke-width: 0.8; stroke-linecap: square"/>
     </g>
     <g id="line2d_12">
      <g>
       <use xlink:href="#meaedc9cf5f" x="619.177139" y="343.19875" style="stroke: #000000; stroke-width: 0.8"/>
      </g>
     </g>
     <g id="text_6">
      <!-- 160 -->
      <g transform="translate(609.633389 357.796406) scale(0.1 -0.1)">
       <use xlink:href="#DejaVuSans-14"/>
       <use xlink:href="#DejaVuSans-19" transform="translate(63.625 0)"/>
       <use xlink:href="#DejaVuSans-13" transform="translate(127.25 0)"/>
      </g>
     </g>
    </g>
    <g id="text_7">
     <!-- Current underlying price -->
     <g transform="translate(284.719141 371.797187) scale(0.1 -0.1)">
      <defs>
       <path id="DejaVuSans-26" d="M 4122 4306 
L 4122 3641 
Q 3803 3938 3442 4084 
Q 3081 4231 2675 4231 
Q 1875 4231 1450 3742 
Q 1025 3253 1025 2328 
Q 1025 1406 1450 917 
Q 1875 428 2675 428 
Q 3081 428 3442 575 
Q 3803 722 4122 1019 
L 4122 359 
Q 3791 134 3420 21 
Q 3050 -91 2638 -91 
Q 1578 -91 968 557 
Q 359 1206 359 2328 
Q 359 3453 968 4101 
Q 1578 4750 2638 4750 
Q 3056 4750 3426 4639 
Q 3797 4528 4122 4306 
z
" transform="scale(0.015625)"/>
       <path id="DejaVuSans-58" d="M 544 1381 
L 544 3500 
L 1119 3500 
L 1119 1403 
Q 1119 906 1312 657 
Q 1506 409 1894 409 
Q 2359 409 2629 706 
Q 2900 1003 2900 1516 
L 2900 3500 
L 3475 3500 
L 3475 0 
L 2900 0 
L 2900 538 
Q 2691 219 2414 64 
Q 2138 -91 1772 -91 
Q 1169 -91 856 284 
Q 544 659 544 1381 
z
M 1991 3584 
L 1991 3584 
z
" transform="scale(0.015625)"/>
       <path id="DejaVuSans-55" d="M 2631 2963 
Q 2534 3019 2420 3045 
Q 2306 3072 2169 3072 
Q 1681 3072 1420 2755 
Q 1159 2438 1159 1844 
L 1159 0 
L 581 0 
L 581 3500 
L 1159 3500 
L 1159 2956 
Q 1341 3275 1631 3429 
Q 1922 3584 2338 3584 
Q 2397 3584 2469 3576 
Q 2541 3569 2628 3553 
L 2631 2963 
z
" transform="scale(0.015625)"/>
       <path id="DejaVuSans-48" d="M 3597 1894 
L 3597 1613 
L 953 1613 
Q 991 1019 1311 708 
Q 1631 397 2203 397 
Q 2534 397 2845 478 
Q 3156 559 3463 722 
L 3463 178 
Q 3153 47 2828 -22 
Q 2503 -91 2169 -91 
Q 1331 -91 842 396 
Q 353 884 353 1716 
Q 353 2575 817 3079 
Q 1281 3584 2069 3584 
Q 2775 3584 3186 3129 
Q 3597 2675 3597 1894 
z
M 3022 2063 
Q 3016 2534 2758 2815 
Q 2500 3097 2075 3097 
Q 1594 3097 1305 2825 
Q 1016 2553 972 2059 
L 3022 2063 
z
" transform="scale(0.015625)"/>
       <path id="DejaVuSans-51" d="M 3513 2113 
L 3513 0 
L 2938 0 
L 2938 2094 
Q 2938 2591 2744 2837 
Q 2550 3084 2163 3084 
Q 1697 3084 1428 2787 
Q 1159 2491 1159 1978 
L 1159 0 
L 581 0 
L 581 3500 
L 1159 3500 
L 1159 2956 
Q 1366 3272 1645 3428 
Q 1925 3584 2291 3584 
Q 2894 3584 3203 3211 
Q 3513 2838 3513 2113 
z
" transform="scale(0.015625)"/>
       <path id="DejaVuSans-57" d="M 1172 4494 
L 1172 3500 
L 2356 3500 
L 2356 3053 
L 1172 3053 
L 1172 1153 
Q 1172 725 1289 603 
Q 1406 481 1766 481 
L 2356 481 
L 2356 0 
L 1766 0 
Q 1100 0 847 248 
Q 594 497 594 1153 
L 594 3053 
L 172 3053 
L 172 3500 
L 594 3500 
L 594 4494 
L 1172 4494 
z
" transform="scale(0.015625)"/>
       <path id="DejaVuSans-3" transform="scale(0.015625)"/>
       <path id="DejaVuSans-47" d="M 2906 2969 
L 2906 4863 
L 3481 4863 
L 3481 0 
L 2906 0 
L 2906 525 
Q 2725 213 2448 61 
Q 2172 -91 1784 -91 
Q 1150 -91 751 415 
Q 353 922 353 1747 
Q 353 2572 751 3078 
Q 1150 3584 1784 3584 
Q 2172 3584 2448 3432 
Q 2725 3281 2906 2969 
z
M 947 1747 
Q 947 1113 1208 752 
Q 1469 391 1925 391 
Q 2381 391 2643 752 
Q 2906 1113 2906 1747 
Q 2906 2381 2643 2742 
Q 2381 3103 1925 3103 
Q 1469 3103 1208 2742 
Q 947 2381 947 1747 
z
" transform="scale(0.015625)"/>
       <path id="DejaVuSans-4f" d="M 603 4863 
L 1178 4863 
L 1178 0 
L 603 0 
L 603 4863 
z
" transform="scale(0.015625)"/>
       <path id="DejaVuSans-5c" d="M 2059 -325 
Q 1816 -950 1584 -1140 
Q 1353 -1331 966 -1331 
L 506 -1331 
L 506 -850 
L 844 -850 
Q 1081 -850 1212 -737 
Q 1344 -625 1503 -206 
L 1606 56 
L 191 3500 
L 800 3500 
L 1894 763 
L 2988 3500 
L 3597 3500 
L 2059 -325 
z
" transform="scale(0.015625)"/>
       <path id="DejaVuSans-4c" d="M 603 3500 
L 1178 3500 
L 1178 0 
L 603 0 
L 603 3500 
z
M 603 4863 
L 1178 4863 
L 1178 4134 
L 603 4134 
L 603 4863 
z
" transform="scale(0.015625)"/>
       <path id="DejaVuSans-4a" d="M 2906 1791 
Q 2906 2416 2648 2759 
Q 2391 3103 1925 3103 
Q 1463 3103 1205 2759 
Q 947 2416 947 1791 
Q 947 1169 1205 825 
Q 1463 481 1925 481 
Q 2391 481 2648 825 
Q 2906 1169 2906 1791 
z
M 3481 434 
Q 3481 -459 3084 -895 
Q 2688 -1331 1869 -1331 
Q 1566 -1331 1297 -1286 
Q 1028 -1241 775 -1147 
L 775 -588 
Q 1028 -725 1275 -790 
Q 1522 -856 1778 -856 
Q 2344 -856 2625 -561 
Q 2906 -266 2906 331 
L 2906 616 
Q 2728 306 2450 153 
Q 2172 0 1784 0 
Q 1141 0 747 490 
Q 353 981 353 1791 
Q 353 2603 747 3093 
Q 1141 3584 1784 3584 
Q 2172 3584 2450 3431 
Q 2728 3278 2906 2969 
L 2906 3500 
L 3481 3500 
L 3481 434 
z
" transform="scale(0.015625)"/>
       <path id="DejaVuSans-53" d="M 1159 525 
L 1159 -1331 
L 581 -1331 
L 581 3500 
L 1159 3500 
L 1159 2969 
Q 1341 3281 1617 3432 
Q 1894 3584 2278 3584 
Q 2916 3584 3314 3078 
Q 3713 2572 3713 1747 
Q 3713 922 3314 415 
Q 2916 -91 2278 -91 
Q 1894 -91 1617 61 
Q 1341 213 1159 525 
z
M 3116 1747 
Q 3116 2381 2855 2742 
Q 2594 3103 2138 3103 
Q 1681 3103 1420 2742 
Q 1159 2381 1159 1747 
Q 1159 1113 1420 752 
Q 1681 391 2138 391 
Q 2594 391 2855 752 
Q 3116 1113 3116 1747 
z
" transform="scale(0.015625)"/>
       <path id="DejaVuSans-46" d="M 3122 3366 
L 3122 2828 
Q 2878 2963 2633 3030 
Q 2388 3097 2138 3097 
Q 1578 3097 1268 2742 
Q 959 2388 959 1747 
Q 959 1106 1268 751 
Q 1578 397 2138 397 
Q 2388 397 2633 464 
Q 2878 531 3122 666 
L 3122 134 
Q 2881 22 2623 -34 
Q 2366 -91 2075 -91 
Q 1284 -91 818 406 
Q 353 903 353 1747 
Q 353 2603 823 3093 
Q 1294 3584 2113 3584 
Q 2378 3584 2631 3529 
Q 2884 3475 3122 3366 
z
" transform="scale(0.015625)"/>
      </defs>
      <use xlink:href="#DejaVuSans-26"/>
      <use xlink:href="#DejaVuSans-58" transform="translate(69.828125 0)"/>
      <use xlink:href="#DejaVuSans-55" transform="translate(133.203125 0)"/>
      <use xlink:href="#DejaVuSans-55" transform="translate(172.5625 0)"/>
      <use xlink:href="#DejaVuSans-48" transform="translate(211.46875 0)"/>
      <use xlink:href="#DejaVuSans-51" transform="translate(273 0)"/>
      <use xlink:href="#DejaVuSans-57" transform="translate(336.375 0)"/>
      <use xlink:href="#DejaVuSans-3" transform="translate(375.578125 0)"/>
      <use xlink:href="#DejaVuSans-58" transform="translate(407.359375 0)"/>
      <use xlink:href="#DejaVuSans-51" transform="translate(470.734375 0)"/>
      <use xlink:href="#DejaVuSans-47" transform="translate(534.109375 0)"/>
      <use xlink:href="#DejaVuSans-48" transform="translate(597.59375 0)"/>
      <use xlink:href="#DejaVuSans-55" transform="translate(659.125 0)"/>
      <use xlink:href="#DejaVuSans-4f" transform="translate(700.234375 0)"/>
      <use xlink:href="#DejaVuSans-5c" transform="translate(728.015625 0)"/>
      <use xlink:href="#DejaVuSans-4c" transform="translate(787.203125 0)"/>
      <use xlink:href="#DejaVuSans-51" transform="translate(814.984375 0)"/>
      <use xlink:href="#DejaVuSans-4a" transform="translate(878.359375 0)"/>
      <use xlink:href="#DejaVuSans-3" transform="translate(941.84375 0)"/>
      <use xlink:href="#DejaVuSans-53" transform="translate(973.625 0)"/>
      <use xlink:href="#DejaVuSans-55" transform="translate(1037.109375 0)"/>
      <use xlink:href="#DejaVuSans-4c" transform="translate(1078.21875 0)"/>
      <use xlink:href="#DejaVuSans-46" transform="translate(1106 0)"/>
      <use xlink:href="#DejaVuSans-48" transform="translate(1160.984375 0)"/>
     </g>
    </g>
   </g>
   <g id="matplotlib.axis_2">
    <g id="ytick_1">
     <g id="line2d_13">
      <path d="M 58.846094 328.682344 
L 632.84375 328.682344 
" clip-path="url(#p1dc5d43974)" style="fill: none; stroke: #d0d7de; stroke-opacity: 0.65; stroke-width: 0.8; stroke-linecap: square"/>
     </g>
     <g id="line2d_14">
      <defs>
       <path id="ma7afb9964f" d="M 0 0 
L -3.5 0 
" style="stroke: #000000; stroke-width: 0.8"/>
      </defs>
      <g>
       <use xlink:href="#ma7afb9964f" x="58.846094" y="328.682344" style="stroke: #000000; stroke-width: 0.8"/>
      </g>
     </g>
     <g id="text_8">
      <!-- −1.00 -->
      <g transform="translate(21.200781 332.481172) scale(0.1 -0.1)">
       <defs>
        <path id="DejaVuSans-c9c" d="M 678 2272 
L 4684 2272 
L 4684 1741 
L 678 1741 
L 678 2272 
z
" transform="scale(0.015625)"/>
        <path id="DejaVuSans-11" d="M 684 794 
L 1344 794 
L 1344 0 
L 684 0 
L 684 794 
z
" transform="scale(0.015625)"/>
       </defs>
       <use xlink:href="#DejaVuSans-c9c"/>
       <use xlink:href="#DejaVuSans-14" transform="translate(83.796875 0)"/>
       <use xlink:href="#DejaVuSans-11" transform="translate(147.421875 0)"/>
       <use xlink:href="#DejaVuSans-13" transform="translate(179.203125 0)"/>
       <use xlink:href="#DejaVuSans-13" transform="translate(242.828125 0)"/>
      </g>
     </g>
    </g>
    <g id="ytick_2">
     <g id="line2d_15">
      <path d="M 58.846094 292.391328 
L 632.84375 292.391328 
" clip-path="url(#p1dc5d43974)" style="fill: none; stroke: #d0d7de; stroke-opacity: 0.65; stroke-width: 0.8; stroke-linecap: square"/>
     </g>
     <g id="line2d_16">
      <g>
       <use xlink:href="#ma7afb9964f" x="58.846094" y="292.391328" style="stroke: #000000; stroke-width: 0.8"/>
      </g>
     </g>
     <g id="text_9">
      <!-- −0.75 -->
      <g transform="translate(21.200781 296.190156) scale(0.1 -0.1)">
       <defs>
        <path id="DejaVuSans-1a" d="M 525 4666 
L 3525 4666 
L 3525 4397 
L 1831 0 
L 1172 0 
L 2766 4134 
L 525 4134 
L 525 4666 
z
" transform="scale(0.015625)"/>
        <path id="DejaVuSans-18" d="M 691 4666 
L 3169 4666 
L 3169 4134 
L 1269 4134 
L 1269 2991 
Q 1406 3038 1543 3061 
Q 1681 3084 1819 3084 
Q 2600 3084 3056 2656 
Q 3513 2228 3513 1497 
Q 3513 744 3044 326 
Q 2575 -91 1722 -91 
Q 1428 -91 1123 -41 
Q 819 9 494 109 
L 494 744 
Q 775 591 1075 516 
Q 1375 441 1709 441 
Q 2250 441 2565 725 
Q 2881 1009 2881 1497 
Q 2881 1984 2565 2268 
Q 2250 2553 1709 2553 
Q 1456 2553 1204 2497 
Q 953 2441 691 2322 
L 691 4666 
z
" transform="scale(0.015625)"/>
       </defs>
       <use xlink:href="#DejaVuSans-c9c"/>
       <use xlink:href="#DejaVuSans-13" transform="translate(83.796875 0)"/>
       <use xlink:href="#DejaVuSans-11" transform="translate(147.421875 0)"/>
       <use xlink:href="#DejaVuSans-1a" transform="translate(179.203125 0)"/>
       <use xlink:href="#DejaVuSans-18" transform="translate(242.828125 0)"/>
      </g>
     </g>
    </g>
    <g id="ytick_3">
     <g id="line2d_17">
      <path d="M 58.846094 256.100312 
L 632.84375 256.100312 
" clip-path="url(#p1dc5d43974)" style="fill: none; stroke: #d0d7de; stroke-opacity: 0.65; stroke-width: 0.8; stroke-linecap: square"/>
     </g>
     <g id="line2d_18">
      <g>
       <use xlink:href="#ma7afb9964f" x="58.846094" y="256.100312" style="stroke: #000000; stroke-width: 0.8"/>
      </g>
     </g>
     <g id="text_10">
      <!-- −0.50 -->
      <g transform="translate(21.200781 259.899141) scale(0.1 -0.1)">
       <use xlink:href="#DejaVuSans-c9c"/>
       <use xlink:href="#DejaVuSans-13" transform="translate(83.796875 0)"/>
       <use xlink:href="#DejaVuSans-11" transform="translate(147.421875 0)"/>
       <use xlink:href="#DejaVuSans-18" transform="translate(179.203125 0)"/>
       <use xlink:href="#DejaVuSans-13" transform="translate(242.828125 0)"/>
      </g>
     </g>
    </g>
    <g id="ytick_4">
     <g id="line2d_19">
      <path d="M 58.846094 219.809297 
L 632.84375 219.809297 
" clip-path="url(#p1dc5d43974)" style="fill: none; stroke: #d0d7de; stroke-opacity: 0.65; stroke-width: 0.8; stroke-linecap: square"/>
     </g>
     <g id="line2d_20">
      <g>
       <use xlink:href="#ma7afb9964f" x="58.846094" y="219.809297" style="stroke: #000000; stroke-width: 0.8"/>
      </g>
     </g>
     <g id="text_11">
      <!-- −0.25 -->
      <g transform="translate(21.200781 223.608125) scale(0.1 -0.1)">
       <use xlink:href="#DejaVuSans-c9c"/>
       <use xlink:href="#DejaVuSans-13" transform="translate(83.796875 0)"/>
       <use xlink:href="#DejaVuSans-11" transform="translate(147.421875 0)"/>
       <use xlink:href="#DejaVuSans-15" transform="translate(179.203125 0)"/>
       <use xlink:href="#DejaVuSans-18" transform="translate(242.828125 0)"/>
      </g>
     </g>
    </g>
    <g id="ytick_5">
     <g id="line2d_21">
      <path d="M 58.846094 183.518281 
L 632.84375 183.518281 
" clip-path="url(#p1dc5d43974)" style="fill: none; stroke: #d0d7de; stroke-opacity: 0.65; stroke-width: 0.8; stroke-linecap: square"/>
     </g>
     <g id="line2d_22">
      <g>
       <use xlink:href="#ma7afb9964f" x="58.846094" y="183.518281" style="stroke: #000000; stroke-width: 0.8"/>
      </g>
     </g>
     <g id="text_12">
      <!-- 0.00 -->
      <g transform="translate(29.580469 187.317109) scale(0.1 -0.1)">
       <use xlink:href="#DejaVuSans-13"/>
       <use xlink:href="#DejaVuSans-11" transform="translate(63.625 0)"/>
       <use xlink:href="#DejaVuSans-13" transform="translate(95.40625 0)"/>
       <use xlink:href="#DejaVuSans-13" transform="translate(159.03125 0)"/>
      </g>
     </g>
    </g>
    <g id="ytick_6">
     <g id="line2d_23">
      <path d="M 58.846094 147.227266 
L 632.84375 147.227266 
" clip-path="url(#p1dc5d43974)" style="fill: none; stroke: #d0d7de; stroke-opacity: 0.65; stroke-width: 0.8; stroke-linecap: square"/>
     </g>
     <g id="line2d_24">
      <g>
       <use xlink:href="#ma7afb9964f" x="58.846094" y="147.227266" style="stroke: #000000; stroke-width: 0.8"/>
      </g>
     </g>
     <g id="text_13">
      <!-- 0.25 -->
      <g transform="translate(29.580469 151.026094) scale(0.1 -0.1)">
       <use xlink:href="#DejaVuSans-13"/>
       <use xlink:href="#DejaVuSans-11" transform="translate(63.625 0)"/>
       <use xlink:href="#DejaVuSans-15" transform="translate(95.40625 0)"/>
       <use xlink:href="#DejaVuSans-18" transform="translate(159.03125 0)"/>
      </g>
     </g>
    </g>
    <g id="ytick_7">
     <g id="line2d_25">
      <path d="M 58.846094 110.93625 
L 632.84375 110.93625 
" clip-path="url(#p1dc5d43974)" style="fill: none; stroke: #d0d7de; stroke-opacity: 0.65; stroke-width: 0.8; stroke-linecap: square"/>
     </g>
     <g id="line2d_26">
      <g>
       <use xlink:href="#ma7afb9964f" x="58.846094" y="110.93625" style="stroke: #000000; stroke-width: 0.8"/>
      </g>
     </g>
     <g id="text_14">
      <!-- 0.50 -->
      <g transform="translate(29.580469 114.735078) scale(0.1 -0.1)">
       <use xlink:href="#DejaVuSans-13"/>
       <use xlink:href="#DejaVuSans-11" transform="translate(63.625 0)"/>
       <use xlink:href="#DejaVuSans-18" transform="translate(95.40625 0)"/>
       <use xlink:href="#DejaVuSans-13" transform="translate(159.03125 0)"/>
      </g>
     </g>
    </g>
    <g id="ytick_8">
     <g id="line2d_27">
      <path d="M 58.846094 74.645234 
L 632.84375 74.645234 
" clip-path="url(#p1dc5d43974)" style="fill: none; stroke: #d0d7de; stroke-opacity: 0.65; stroke-width: 0.8; stroke-linecap: square"/>
     </g>
     <g id="line2d_28">
      <g>
       <use xlink:href="#ma7afb9964f" x="58.846094" y="74.645234" style="stroke: #000000; stroke-width: 0.8"/>
      </g>
     </g>
     <g id="text_15">
      <!-- 0.75 -->
      <g transform="translate(29.580469 78.444062) scale(0.1 -0.1)">
       <use xlink:href="#DejaVuSans-13"/>
       <use xlink:href="#DejaVuSans-11" transform="translate(63.625 0)"/>
       <use xlink:href="#DejaVuSans-1a" transform="translate(95.40625 0)"/>
       <use xlink:href="#DejaVuSans-18" transform="translate(159.03125 0)"/>
      </g>
     </g>
    </g>
    <g id="ytick_9">
     <g id="line2d_29">
      <path d="M 58.846094 38.354219 
L 632.84375 38.354219 
" clip-path="url(#p1dc5d43974)" style="fill: none; stroke: #d0d7de; stroke-opacity: 0.65; stroke-width: 0.8; stroke-linecap: square"/>
     </g>
     <g id="line2d_30">
      <g>
       <use xlink:href="#ma7afb9964f" x="58.846094" y="38.354219" style="stroke: #000000; stroke-width: 0.8"/>
      </g>
     </g>
     <g id="text_16">
      <!-- 1.00 -->
      <g transform="translate(29.580469 42.153047) scale(0.1 -0.1)">
       <use xlink:href="#DejaVuSans-14"/>
       <use xlink:href="#DejaVuSans-11" transform="translate(63.625 0)"/>
       <use xlink:href="#DejaVuSans-13" transform="translate(95.40625 0)"/>
       <use xlink:href="#DejaVuSans-13" transform="translate(159.03125 0)"/>
      </g>
     </g>
    </g>
    <g id="text_17">
     <!-- Standardized Greek value -->
     <g transform="translate(14.798438 248.233906) rotate(-90) scale(0.1 -0.1)">
      <defs>
       <path id="DejaVuSans-36" d="M 3425 4513 
L 3425 3897 
Q 3066 4069 2747 4153 
Q 2428 4238 2131 4238 
Q 1616 4238 1336 4038 
Q 1056 3838 1056 3469 
Q 1056 3159 1242 3001 
Q 1428 2844 1947 2747 
L 2328 2669 
Q 3034 2534 3370 2195 
Q 3706 1856 3706 1288 
Q 3706 609 3251 259 
Q 2797 -91 1919 -91 
Q 1588 -91 1214 -16 
Q 841 59 441 206 
L 441 856 
Q 825 641 1194 531 
Q 1563 422 1919 422 
Q 2459 422 2753 634 
Q 3047 847 3047 1241 
Q 3047 1584 2836 1778 
Q 2625 1972 2144 2069 
L 1759 2144 
Q 1053 2284 737 2584 
Q 422 2884 422 3419 
Q 422 4038 858 4394 
Q 1294 4750 2059 4750 
Q 2388 4750 2728 4690 
Q 3069 4631 3425 4513 
z
" transform="scale(0.015625)"/>
       <path id="DejaVuSans-44" d="M 2194 1759 
Q 1497 1759 1228 1600 
Q 959 1441 959 1056 
Q 959 750 1161 570 
Q 1363 391 1709 391 
Q 2188 391 2477 730 
Q 2766 1069 2766 1631 
L 2766 1759 
L 2194 1759 
z
M 3341 1997 
L 3341 0 
L 2766 0 
L 2766 531 
Q 2569 213 2275 61 
Q 1981 -91 1556 -91 
Q 1019 -91 701 211 
Q 384 513 384 1019 
Q 384 1609 779 1909 
Q 1175 2209 1959 2209 
L 2766 2209 
L 2766 2266 
Q 2766 2663 2505 2880 
Q 2244 3097 1772 3097 
Q 1472 3097 1187 3025 
Q 903 2953 641 2809 
L 641 3341 
Q 956 3463 1253 3523 
Q 1550 3584 1831 3584 
Q 2591 3584 2966 3190 
Q 3341 2797 3341 1997 
z
" transform="scale(0.015625)"/>
       <path id="DejaVuSans-5d" d="M 353 3500 
L 3084 3500 
L 3084 2975 
L 922 459 
L 3084 459 
L 3084 0 
L 275 0 
L 275 525 
L 2438 3041 
L 353 3041 
L 353 3500 
z
" transform="scale(0.015625)"/>
       <path id="DejaVuSans-2a" d="M 3809 666 
L 3809 1919 
L 2778 1919 
L 2778 2438 
L 4434 2438 
L 4434 434 
Q 4069 175 3628 42 
Q 3188 -91 2688 -91 
Q 1594 -91 976 548 
Q 359 1188 359 2328 
Q 359 3472 976 4111 
Q 1594 4750 2688 4750 
Q 3144 4750 3555 4637 
Q 3966 4525 4313 4306 
L 4313 3634 
Q 3963 3931 3569 4081 
Q 3175 4231 2741 4231 
Q 1884 4231 1454 3753 
Q 1025 3275 1025 2328 
Q 1025 1384 1454 906 
Q 1884 428 2741 428 
Q 3075 428 3337 486 
Q 3600 544 3809 666 
z
" transform="scale(0.015625)"/>
       <path id="DejaVuSans-4e" d="M 581 4863 
L 1159 4863 
L 1159 1991 
L 2875 3500 
L 3609 3500 
L 1753 1863 
L 3688 0 
L 2938 0 
L 1159 1709 
L 1159 0 
L 581 0 
L 581 4863 
z
" transform="scale(0.015625)"/>
       <path id="DejaVuSans-59" d="M 191 3500 
L 800 3500 
L 1894 563 
L 2988 3500 
L 3597 3500 
L 2284 0 
L 1503 0 
L 191 3500 
z
" transform="scale(0.015625)"/>
      </defs>
      <use xlink:href="#DejaVuSans-36"/>
      <use xlink:href="#DejaVuSans-57" transform="translate(63.484375 0)"/>
      <use xlink:href="#DejaVuSans-44" transform="translate(102.6875 0)"/>
      <use xlink:href="#DejaVuSans-51" transform="translate(163.96875 0)"/>
      <use xlink:href="#DejaVuSans-47" transform="translate(227.34375 0)"/>
      <use xlink:href="#DejaVuSans-44" transform="translate(290.828125 0)"/>
      <use xlink:href="#DejaVuSans-55" transform="translate(352.109375 0)"/>
      <use xlink:href="#DejaVuSans-47" transform="translate(391.46875 0)"/>
      <use xlink:href="#DejaVuSans-4c" transform="translate(454.953125 0)"/>
      <use xlink:href="#DejaVuSans-5d" transform="translate(482.734375 0)"/>
      <use xlink:href="#DejaVuSans-48" transform="translate(535.21875 0)"/>
      <use xlink:href="#DejaVuSans-47" transform="translate(596.75 0)"/>
      <use xlink:href="#DejaVuSans-3" transform="translate(660.234375 0)"/>
      <use xlink:href="#DejaVuSans-2a" transform="translate(692.015625 0)"/>
      <use xlink:href="#DejaVuSans-55" transform="translate(769.5 0)"/>
      <use xlink:href="#DejaVuSans-48" transform="translate(808.40625 0)"/>
      <use xlink:href="#DejaVuSans-48" transform="translate(869.9375 0)"/>
      <use xlink:href="#DejaVuSans-4e" transform="translate(931.46875 0)"/>
      <use xlink:href="#DejaVuSans-3" transform="translate(989.375 0)"/>
      <use xlink:href="#DejaVuSans-59" transform="translate(1021.15625 0)"/>
      <use xlink:href="#DejaVuSans-44" transform="translate(1080.34375 0)"/>
      <use xlink:href="#DejaVuSans-4f" transform="translate(1141.625 0)"/>
      <use xlink:href="#DejaVuSans-58" transform="translate(1169.40625 0)"/>
      <use xlink:href="#DejaVuSans-48" transform="translate(1232.78125 0)"/>
     </g>
    </g>
   </g>
   <g id="line2d_31">
    <path d="M 84.936896 183.157197 
L 90.155057 183.042322 
L 95.373217 182.898756 
L 100.591378 182.721473 
L 105.809538 182.505033 
L 111.027699 182.243636 
L 116.245859 181.931181 
L 121.46402 181.561347 
L 126.68218 181.127677 
L 131.900341 180.623675 
L 137.118501 180.042907 
L 142.336662 179.379107 
L 147.554822 178.626288 
L 152.772983 177.778842 
L 157.991143 176.831645 
L 163.209304 175.780149 
L 168.427464 174.620469 
L 173.645625 173.349454 
L 178.863786 171.964753 
L 184.081946 170.464858 
L 189.300107 168.84914 
L 194.518267 167.117868 
L 199.736428 165.272213 
L 204.954588 163.314234 
L 210.172749 161.246858 
L 215.390909 159.073844 
L 220.60907 156.799731 
L 225.82723 154.429787 
L 231.045391 151.969936 
L 236.263551 149.42669 
L 241.481712 146.807072 
L 246.699872 144.118532 
L 251.918033 141.368865 
L 257.136193 138.566129 
L 262.354354 135.71856 
L 267.572514 132.834494 
L 272.790675 129.92229 
L 278.008835 126.990253 
L 283.226996 124.04657 
L 288.445156 121.099247 
L 293.663317 118.156049 
L 298.881477 115.224453 
L 304.099638 112.311603 
L 309.317798 109.424272 
L 314.535959 106.568831 
L 319.754119 103.751225 
L 324.97228 100.976955 
L 330.19044 98.251062 
L 335.408601 95.578124 
L 340.626761 92.962248 
L 345.844922 90.407079 
L 351.063082 87.9158 
L 356.281243 85.491144 
L 361.499403 83.135408 
L 366.717564 80.850469 
L 371.935724 78.6378 
L 377.153885 76.498491 
L 382.372045 74.43327 
L 387.590206 72.442529 
L 392.808366 70.526341 
L 398.026527 68.684489 
L 403.244687 66.916488 
L 408.462848 65.221609 
L 413.681009 63.5989 
L 418.899169 62.047216 
L 424.11733 60.565232 
L 429.33549 59.151473 
L 434.553651 57.804328 
L 439.771811 56.522075 
L 444.989972 55.302895 
L 450.208132 54.144893 
L 455.426293 53.046109 
L 460.644453 52.004542 
L 465.862614 51.018155 
L 471.080774 50.084891 
L 476.298935 49.202686 
L 481.517095 48.369478 
L 486.735256 47.583218 
L 491.953416 46.841875 
L 497.171577 46.143446 
L 502.389737 45.485963 
L 507.607898 44.867498 
L 512.826058 44.286167 
L 518.044219 43.740133 
L 523.262379 43.227613 
L 528.48054 42.746879 
L 533.6987 42.296258 
L 538.916861 41.874137 
L 544.135021 41.478961 
L 549.353182 41.109236 
L 554.571342 40.763529 
L 559.789503 40.440466 
L 565.007663 40.138735 
L 570.225824 39.857079 
L 575.443984 39.594305 
L 580.662145 39.349273 
L 585.880305 39.1209 
L 591.098466 38.908157 
L 596.316626 38.710071 
L 601.534787 38.525716 
L 606.752947 38.354219 
" clip-path="url(#p1dc5d43974)" style="fill: none; stroke: #0f4c81; stroke-width: 2.2; stroke-linecap: square"/>
   </g>
   <g id="line2d_32">
    <path d="M 84.936896 178.488908 
L 90.155057 177.1922 
L 95.373217 175.658613 
L 100.591378 173.866873 
L 105.809538 171.797812 
L 111.027699 169.435059 
L 116.245859 166.76569 
L 121.46402 163.780817 
L 126.68218 160.476071 
L 131.900341 156.851987 
L 137.118501 152.914253 
L 142.336662 148.673833 
L 147.554822 144.14695 
L 152.772983 139.354938 
L 157.991143 134.323956 
L 163.209304 129.084598 
L 168.427464 123.671391 
L 173.645625 118.122212 
L 178.863786 112.477637 
L 184.081946 106.780245 
L 189.300107 101.073895 
L 194.518267 95.403 
L 199.736428 89.811806 
L 204.954588 84.343713 
L 210.172749 79.040624 
L 215.390909 73.942361 
L 220.60907 69.086148 
L 225.82723 64.506154 
L 231.045391 60.233131 
L 236.263551 56.29412 
L 241.481712 52.71224 
L 246.699872 49.506556 
L 251.918033 46.692025 
L 257.136193 44.279504 
L 262.354354 42.275827 
L 267.572514 40.683939 
L 272.790675 39.503078 
L 278.008835 38.728996 
L 283.226996 38.354219 
L 288.445156 38.36833 
L 293.663317 38.758273 
L 298.881477 39.508663 
L 304.099638 40.602113 
L 309.317798 42.019547 
L 314.535959 43.740521 
L 319.754119 45.743523 
L 324.97228 48.006268 
L 330.19044 50.505974 
L 335.408601 53.219613 
L 340.626761 56.124153 
L 345.844922 59.196768 
L 351.063082 62.415033 
L 356.281243 65.757089 
L 361.499403 69.20179 
L 366.717564 72.72883 
L 371.935724 76.318843 
L 377.153885 79.953483 
L 382.372045 83.615495 
L 387.590206 87.288753 
L 392.808366 90.958294 
L 398.026527 94.610331 
L 403.244687 98.232254 
L 408.462848 101.812621 
L 413.681009 105.341138 
L 418.899169 108.808627 
L 424.11733 112.206992 
L 429.33549 115.529176 
L 434.553651 118.769111 
L 439.771811 121.921667 
L 444.989972 124.9826 
L 450.208132 127.948492 
L 455.426293 130.816698 
L 460.644453 133.585283 
L 465.862614 136.252971 
L 471.080774 138.819081 
L 476.298935 141.283479 
L 481.517095 143.646519 
L 486.735256 145.908995 
L 491.953416 148.07209 
L 497.171577 150.13733 
L 502.389737 152.10654 
L 507.607898 153.981801 
L 512.826058 155.765413 
L 518.044219 157.459859 
L 523.262379 159.067771 
L 528.48054 160.5919 
L 533.6987 162.035087 
L 538.916861 163.40024 
L 544.135021 164.690309 
L 549.353182 165.908266 
L 554.571342 167.057086 
L 559.789503 168.139734 
L 565.007663 169.159144 
L 570.225824 170.118215 
L 575.443984 171.019793 
L 580.662145 171.866666 
L 585.880305 172.661555 
L 591.098466 173.407108 
L 596.316626 174.105892 
L 601.534787 174.760394 
L 606.752947 175.373013 
" clip-path="url(#p1dc5d43974)" style="fill: none; stroke: #e07a5f; stroke-width: 2.2; stroke-linecap: square"/>
   </g>
   <g id="line2d_33">
    <path d="M 84.936896 182.059878 
L 90.155057 181.609752 
L 95.373217 181.05318 
L 100.591378 180.373675 
L 105.809538 179.554074 
L 111.027699 178.576867 
L 116.245859 177.42457 
L 121.46402 176.080132 
L 126.68218 174.527365 
L 131.900341 172.751386 
L 137.118501 170.739045 
L 142.336662 168.479346 
L 147.554822 165.963829 
L 152.772983 163.186901 
L 157.991143 160.146125 
L 163.209304 156.842432 
L 168.427464 153.280266 
L 173.645625 149.467658 
L 178.863786 145.416214 
L 184.081946 141.14104 
L 189.300107 136.660579 
L 194.518267 131.996396 
L 199.736428 127.172888 
L 204.954588 122.216957 
L 210.172749 117.157623 
L 215.390909 112.025619 
L 220.60907 106.852953 
L 225.82723 101.672465 
L 231.045391 96.517372 
L 236.263551 91.420833 
L 241.481712 86.415517 
L 246.699872 81.533198 
L 251.918033 76.804388 
L 257.136193 72.257987 
L 262.354354 67.920993 
L 267.572514 63.818238 
L 272.790675 59.972175 
L 278.008835 56.402712 
L 283.226996 53.127083 
L 288.445156 50.159774 
L 293.663317 47.512479 
L 298.881477 45.194102 
L 304.099638 43.210797 
L 309.317798 41.566035 
L 314.535959 40.260704 
L 319.754119 39.293235 
L 324.97228 38.659749 
L 330.19044 38.354219 
L 335.408601 38.368647 
L 340.626761 38.693254 
L 345.844922 39.316673 
L 351.063082 40.226145 
L 356.281243 41.407719 
L 361.499403 42.846446 
L 366.717564 44.526569 
L 371.935724 46.431706 
L 377.153885 48.54503 
L 382.372045 50.849429 
L 387.590206 53.327665 
L 392.808366 55.962514 
L 398.026527 58.736901 
L 403.244687 61.634011 
L 408.462848 64.637402 
L 413.681009 67.731094 
L 418.899169 70.899649 
L 424.11733 74.12824 
L 429.33549 77.402709 
L 434.553651 80.709609 
L 439.771811 84.036243 
L 444.989972 87.370687 
L 450.208132 90.701808 
L 455.426293 94.019273 
L 460.644453 97.313546 
L 465.862614 100.57589 
L 471.080774 103.798346 
L 476.298935 106.973725 
L 481.517095 110.095584 
L 486.735256 113.158197 
L 491.953416 116.156536 
L 497.171577 119.086232 
L 502.389737 121.943549 
L 507.607898 124.725344 
L 512.826058 127.429041 
L 518.044219 130.052586 
L 523.262379 132.594418 
L 528.48054 135.053431 
L 533.6987 137.428941 
L 538.916861 139.720648 
L 544.135021 141.928606 
L 549.353182 144.053187 
L 554.571342 146.095053 
L 559.789503 148.055126 
L 565.007663 149.934557 
L 570.225824 151.734699 
L 575.443984 153.457082 
L 580.662145 155.103393 
L 585.880305 156.675445 
L 591.098466 158.175163 
L 596.316626 159.604561 
L 601.534787 160.965727 
L 606.752947 162.260803 
" clip-path="url(#p1dc5d43974)" style="fill: none; stroke: #3d9970; stroke-width: 2.2; stroke-linecap: square"/>
   </g>
   <g id="line2d_34">
    <path d="M 84.936896 184.510427 
L 90.155057 184.8207 
L 95.373217 185.205903 
L 100.591378 185.678169 
L 105.809538 186.250297 
L 111.027699 186.935549 
L 116.245859 187.747411 
L 121.46402 188.699328 
L 126.68218 189.804415 
L 131.900341 191.075163 
L 137.118501 192.523136 
L 142.336662 194.158673 
L 147.554822 195.990609 
L 152.772983 198.026022 
L 157.991143 200.270004 
L 163.209304 202.72548 
L 168.427464 205.39306 
L 173.645625 208.270948 
L 178.863786 211.354892 
L 184.081946 214.638192 
L 189.300107 218.111748 
L 194.518267 221.764161 
L 199.736428 225.581877 
L 204.954588 229.549362 
L 210.172749 233.649321 
L 215.390909 237.862936 
L 220.60907 242.170129 
L 225.82723 246.549837 
L 231.045391 250.980297 
L 236.263551 255.43933 
L 241.481712 259.90463 
L 246.699872 264.354027 
L 251.918033 268.765758 
L 257.136193 273.118699 
L 262.354354 277.392592 
L 267.572514 281.56824 
L 272.790675 285.627679 
L 278.008835 289.554322 
L 283.226996 293.333079 
L 288.445156 296.950447 
L 293.663317 300.394572 
L 298.881477 303.655289 
L 304.099638 306.724138 
L 309.317798 309.594353 
L 314.535959 312.260834 
L 319.754119 314.720102 
L 324.97228 316.970234 
L 330.19044 319.010788 
L 335.408601 320.842714 
L 340.626761 322.468255 
L 345.844922 323.890846 
L 351.063082 325.115003 
L 356.281243 326.146211 
L 361.499403 326.990809 
L 366.717564 327.655879 
L 371.935724 328.149135 
L 377.153885 328.478809 
L 382.372045 328.653555 
L 387.590206 328.682344 
L 392.808366 328.574369 
L 398.026527 328.338963 
L 403.244687 327.985512 
L 408.462848 327.523384 
L 413.681009 326.961863 
L 418.899169 326.310083 
L 424.11733 325.576982 
L 429.33549 324.77125 
L 434.553651 323.901292 
L 439.771811 322.975193 
L 444.989972 322.000692 
L 450.208132 320.985158 
L 455.426293 319.935576 
L 460.644453 318.858532 
L 465.862614 317.760208 
L 471.080774 316.646378 
L 476.298935 315.522408 
L 481.517095 314.39326 
L 486.735256 313.263497 
L 491.953416 312.137293 
L 497.171577 311.018445 
L 502.389737 309.910381 
L 507.607898 308.816182 
L 512.826058 307.738587 
L 518.044219 306.680017 
L 523.262379 305.642591 
L 528.48054 304.628137 
L 533.6987 303.638217 
L 538.916861 302.674141 
L 544.135021 301.736983 
L 549.353182 300.827601 
L 554.571342 299.946651 
L 559.789503 299.094606 
L 565.007663 298.271771 
L 570.225824 297.478296 
L 575.443984 296.714194 
L 580.662145 295.979353 
L 585.880305 295.273549 
L 591.098466 294.596458 
L 596.316626 293.947672 
L 601.534787 293.326703 
L 606.752947 292.732999 
" clip-path="url(#p1dc5d43974)" style="fill: none; stroke: #6c5b7b; stroke-width: 2.2; stroke-linecap: square"/>
   </g>
   <g id="line2d_35">
    <path d="M 84.936896 183.338268 
L 90.155057 183.27661 
L 95.373217 183.198029 
L 100.591378 183.099112 
L 105.809538 182.976048 
L 111.027699 182.824648 
L 116.245859 182.640359 
L 121.46402 182.418302 
L 126.68218 182.153311 
L 131.900341 181.839993 
L 137.118501 181.472787 
L 142.336662 181.046035 
L 147.554822 180.554059 
L 152.772983 179.991245 
L 157.991143 179.352126 
L 163.209304 178.631466 
L 168.427464 177.824346 
L 173.645625 176.926242 
L 178.863786 175.933102 
L 184.081946 174.841415 
L 189.300107 173.648268 
L 194.518267 172.351403 
L 199.736428 170.949255 
L 204.954588 169.44098 
L 210.172749 167.826478 
L 215.390909 166.106399 
L 220.60907 164.282143 
L 225.82723 162.355841 
L 231.045391 160.330337 
L 236.263551 158.209151 
L 241.481712 155.996444 
L 246.699872 153.696965 
L 251.918033 151.315999 
L 257.136193 148.859311 
L 262.354354 146.33308 
L 267.572514 143.743837 
L 272.790675 141.098399 
L 278.008835 138.403801 
L 283.226996 135.667232 
L 288.445156 132.895972 
L 293.663317 130.097329 
L 298.881477 127.278577 
L 304.099638 124.446908 
L 309.317798 121.609377 
L 314.535959 118.772855 
L 319.754119 115.943987 
L 324.97228 113.129157 
L 330.19044 110.334457 
L 335.408601 107.565653 
L 340.626761 104.828172 
L 345.844922 102.127076 
L 351.063082 99.467054 
L 356.281243 96.852411 
L 361.499403 94.287064 
L 366.717564 91.77454 
L 371.935724 89.317978 
L 377.153885 86.920137 
L 382.372045 84.5834 
L 387.590206 82.309785 
L 392.808366 80.100961 
L 398.026527 77.95826 
L 403.244687 75.88269 
L 408.462848 73.874956 
L 413.681009 71.935478 
L 418.899169 70.064404 
L 424.11733 68.261633 
L 429.33549 66.526836 
L 434.553651 64.859469 
L 439.771811 63.258797 
L 444.989972 61.723909 
L 450.208132 60.253737 
L 455.426293 58.847077 
L 460.644453 57.502599 
L 465.862614 56.218869 
L 471.080774 54.994362 
L 476.298935 53.827476 
L 481.517095 52.716546 
L 486.735256 51.659859 
L 491.953416 50.655662 
L 497.171577 49.702176 
L 502.389737 48.797604 
L 507.607898 47.940142 
L 512.826058 47.127987 
L 518.044219 46.359345 
L 523.262379 45.632435 
L 528.48054 44.945499 
L 533.6987 44.296805 
L 538.916861 43.684654 
L 544.135021 43.10738 
L 549.353182 42.563357 
L 554.571342 42.051002 
L 559.789503 41.568775 
L 565.007663 41.115182 
L 570.225824 40.688778 
L 575.443984 40.288166 
L 580.662145 39.912 
L 585.880305 39.558982 
L 591.098466 39.227867 
L 596.316626 38.917457 
L 601.534787 38.626607 
L 606.752947 38.354219 
" clip-path="url(#p1dc5d43974)" style="fill: none; stroke: #2e86ab; stroke-width: 2.2; stroke-linecap: square"/>
   </g>
   <g id="line2d_36">
    <path d="M 84.936896 172.252333 
L 90.155057 169.49316 
L 95.373217 166.284256 
L 100.591378 162.602615 
L 105.809538 158.433695 
L 111.027699 153.772807 
L 116.245859 148.626244 
L 121.46402 143.012093 
L 126.68218 136.960682 
L 131.900341 130.51464 
L 137.118501 123.728555 
L 142.336662 116.668244 
L 147.554822 109.409655 
L 152.772983 102.037441 
L 157.991143 94.643263 
L 163.209304 87.323874 
L 168.427464 80.179061 
L 173.645625 73.309506 
L 178.863786 66.814639 
L 184.081946 60.79055 
L 189.300107 55.328016 
L 194.518267 50.510701 
L 199.736428 46.413566 
L 204.954588 43.101533 
L 210.172749 40.628415 
L 215.390909 39.036131 
L 220.60907 38.354219 
L 225.82723 38.599621 
L 231.045391 39.776751 
L 236.263551 41.877807 
L 241.481712 44.883319 
L 246.699872 48.762886 
L 251.918033 53.47609 
L 257.136193 58.97354 
L 262.354354 65.198015 
L 267.572514 72.085684 
L 272.790675 79.567355 
L 278.008835 87.569733 
L 283.226996 96.016668 
L 288.445156 104.830352 
L 293.663317 113.932463 
L 298.881477 123.245226 
L 304.099638 132.692387 
L 309.317798 142.200086 
L 314.535959 151.697622 
L 319.754119 161.118114 
L 324.97228 170.399042 
L 330.19044 179.482686 
L 335.408601 188.316457 
L 340.626761 196.853125 
L 345.844922 205.050959 
L 351.063082 212.873767 
L 356.281243 220.290875 
L 361.499403 227.277024 
L 366.717564 233.812205 
L 371.935724 239.881451 
L 377.153885 245.474581 
L 382.372045 250.585904 
L 387.590206 255.213904 
L 392.808366 259.360905 
L 398.026527 263.032715 
L 403.244687 266.238275 
L 408.462848 268.989301 
L 413.681009 271.29993 
L 418.899169 273.186377 
L 424.11733 274.666603 
L 429.33549 275.759997 
L 434.553651 276.487077 
L 439.771811 276.869208 
L 444.989972 276.928343 
L 450.208132 276.686781 
L 455.426293 276.166951 
L 460.644453 275.391217 
L 465.862614 274.3817 
L 471.080774 273.160127 
L 476.298935 271.747696 
L 481.517095 270.164962 
L 486.735256 268.431743 
L 491.953416 266.567038 
L 497.171577 264.588967 
L 502.389737 262.514722 
L 507.607898 260.360534 
L 512.826058 258.14165 
L 518.044219 255.872321 
L 523.262379 253.565802 
L 528.48054 251.23436 
L 533.6987 248.889289 
L 538.916861 246.540927 
L 544.135021 244.19869 
L 549.353182 241.871098 
L 554.571342 239.565812 
L 559.789503 237.289671 
L 565.007663 235.048734 
L 570.225824 232.84832 
L 575.443984 230.693051 
L 580.662145 228.586896 
L 585.880305 226.533212 
L 591.098466 224.534791 
L 596.316626 222.593897 
L 601.534787 220.712312 
L 606.752947 218.891373 
" clip-path="url(#p1dc5d43974)" style="fill: none; stroke: #0f4c81; stroke-width: 2.2; stroke-linecap: square"/>
   </g>
   <g id="line2d_37">
    <path d="M 84.936896 168.914455 
L 90.155057 165.567484 
L 95.373217 161.756797 
L 100.591378 157.484538 
L 105.809538 152.766931 
L 111.027699 147.635241 
L 116.245859 142.136172 
L 121.46402 136.331625 
L 126.68218 130.297824 
L 131.900341 124.123824 
L 137.118501 117.909442 
L 142.336662 111.7627 
L 147.554822 105.796886 
L 152.772983 100.127339 
L 157.991143 94.868103 
L 163.209304 90.12857 
L 168.427464 86.010253 
L 173.645625 82.603795 
L 178.863786 79.986334 
L 184.081946 78.219296 
L 189.300107 77.346688 
L 194.518267 77.39393 
L 199.736428 78.367256 
L 204.954588 80.253656 
L 210.172749 83.02137 
L 215.390909 86.620867 
L 220.60907 90.986266 
L 225.82723 96.037139 
L 231.045391 101.680606 
L 236.263551 107.813665 
L 241.481712 114.325661 
L 246.699872 121.100826 
L 251.918033 128.020819 
L 257.136193 134.96719 
L 262.354354 141.823722 
L 267.572514 148.478588 
L 272.790675 154.826292 
L 278.008835 160.769358 
L 283.226996 166.219753 
L 288.445156 171.100018 
L 293.663317 175.34412 
L 298.881477 178.898019 
L 304.099638 181.719961 
L 309.317798 183.780523 
L 314.535959 185.062415 
L 319.754119 185.560079 
L 324.97228 185.279104 
L 330.19044 184.235483 
L 335.408601 182.454752 
L 340.626761 179.971023 
L 345.844922 176.825953 
L 351.063082 173.067668 
L 356.281243 168.749667 
L 361.499403 163.92973 
L 366.717564 158.668845 
L 371.935724 153.030178 
L 377.153885 147.078093 
L 382.372045 140.877238 
L 387.590206 134.491702 
L 392.808366 127.984258 
L 398.026527 121.415685 
L 403.244687 114.844176 
L 408.462848 108.324844 
L 413.681009 101.909298 
L 418.899169 95.645315 
L 424.11733 89.576591 
L 429.33549 83.742561 
L 434.553651 78.178295 
L 439.771811 72.914454 
L 444.989972 67.977312 
L 450.208132 63.388819 
L 455.426293 59.166718 
L 460.644453 55.324697 
L 465.862614 51.872574 
L 471.080774 48.816509 
L 476.298935 46.15924 
L 481.517095 43.900327 
L 486.735256 42.036417 
L 491.953416 40.56151 
L 497.171577 39.467226 
L 502.389737 38.743073 
L 507.607898 38.376713 
L 512.826058 38.354219 
L 518.044219 38.66032 
L 523.262379 39.278641 
L 528.48054 40.191929 
L 533.6987 41.382259 
L 538.916861 42.831236 
L 544.135021 44.520172 
L 549.353182 46.430258 
L 554.571342 48.542708 
L 559.789503 50.838903 
L 565.007663 53.300506 
L 570.225824 55.909571 
L 575.443984 58.648633 
L 580.662145 61.500791 
L 585.880305 64.449773 
L 591.098466 67.479989 
L 596.316626 70.576577 
L 601.534787 73.725434 
L 606.752947 76.913245 
" clip-path="url(#p1dc5d43974)" style="fill: none; stroke: #e07a5f; stroke-width: 2.2; stroke-linecap: square"/>
   </g>
   <g id="line2d_38">
    <path d="M 84.936896 174.52568 
L 90.155057 172.278663 
L 95.373217 169.649958 
L 100.591378 166.615029 
L 105.809538 163.155347 
L 111.027699 159.259584 
L 116.245859 154.924631 
L 121.46402 150.156394 
L 126.68218 144.970336 
L 131.900341 139.391724 
L 137.118501 133.455579 
L 142.336662 127.206321 
L 147.554822 120.697129 
L 152.772983 113.989026 
L 157.991143 107.149737 
L 163.209304 100.252354 
L 168.427464 93.373855 
L 173.645625 86.593527 
L 178.863786 79.991352 
L 184.081946 73.646391 
L 189.300107 67.63523 
L 194.518267 62.030518 
L 199.736428 56.899635 
L 204.954588 52.303526 
L 210.172749 48.29572 
L 215.390909 44.921543 
L 220.60907 42.217545 
L 225.82723 40.211135 
L 231.045391 38.920416 
L 236.263551 38.354219 
L 241.481712 38.512316 
L 246.699872 39.385795 
L 251.918033 40.957572 
L 257.136193 43.203029 
L 262.354354 46.090739 
L 267.572514 49.583274 
L 272.790675 53.638053 
L 278.008835 58.20822 
L 283.226996 63.243535 
L 288.445156 68.691246 
L 293.663317 74.496944 
L 298.881477 80.605368 
L 304.099638 86.961167 
L 309.317798 93.509599 
L 314.535959 100.197158 
L 319.754119 106.972134 
L 324.97228 113.7851 
L 330.19044 120.589321 
L 335.408601 127.341086 
L 340.626761 133.999973 
L 345.844922 140.529043 
L 351.063082 146.894969 
L 356.281243 153.068103 
L 361.499403 159.022488 
L 366.717564 164.735831 
L 371.935724 170.189415 
L 377.153885 175.36799 
L 382.372045 180.259626 
L 387.590206 184.855537 
L 392.808366 189.149892 
L 398.026527 193.139604 
L 403.244687 196.824111 
L 408.462848 200.205155 
L 413.681009 203.286546 
L 418.899169 206.07394 
L 424.11733 208.574613 
L 429.33549 210.797244 
L 434.553651 212.751701 
L 439.771811 214.448846 
L 444.989972 215.900343 
L 450.208132 217.118479 
L 455.426293 218.116005 
L 460.644453 218.905978 
L 465.862614 219.501631 
L 471.080774 219.916242 
L 476.298935 220.163029 
L 481.517095 220.255046 
L 486.735256 220.205104 
L 491.953416 220.025692 
L 497.171577 219.728915 
L 502.389737 219.326446 
L 507.607898 218.829481 
L 512.826058 218.248704 
L 518.044219 217.594267 
L 523.262379 216.875768 
L 528.48054 216.102244 
L 533.6987 215.282163 
L 538.916861 214.423428 
L 544.135021 213.533382 
L 549.353182 212.618813 
L 554.571342 211.685973 
L 559.789503 210.740592 
L 565.007663 209.787892 
L 570.225824 208.832613 
L 575.443984 207.879029 
L 580.662145 206.930977 
L 585.880305 205.991874 
L 591.098466 205.064744 
L 596.316626 204.15224 
L 601.534787 203.256673 
L 606.752947 202.380028 
" clip-path="url(#p1dc5d43974)" style="fill: none; stroke: #3d9970; stroke-width: 2.2; stroke-linecap: square"/>
   </g>
   <g id="line2d_39">
    <path d="M 345.844922 343.19875 
L 345.844922 23.837812 
" clip-path="url(#p1dc5d43974)" style="fill: none; stroke-dasharray: 5.55,2.4; stroke-dashoffset: 0; stroke: #e07a5f; stroke-width: 1.5"/>
   </g>
   <g id="patch_3">
    <path d="M 58.846094 343.19875 
L 58.846094 23.837812 
" style="fill: none; stroke: #d0d7de; stroke-width: 0.8; stroke-linejoin: miter; stroke-linecap: square"/>
   </g>
   <g id="patch_4">
    <path d="M 632.84375 343.19875 
L 632.84375 23.837812 
" style="fill: none; stroke: #d0d7de; stroke-width: 0.8; stroke-linejoin: miter; stroke-linecap: square"/>
   </g>
   <g id="patch_5">
    <path d="M 58.846094 343.19875 
L 632.84375 343.19875 
" style="fill: none; stroke: #d0d7de; stroke-width: 0.8; stroke-linejoin: miter; stroke-linecap: square"/>
   </g>
   <g id="patch_6">
    <path d="M 58.846094 23.837812 
L 632.84375 23.837812 
" style="fill: none; stroke: #d0d7de; stroke-width: 0.8; stroke-linejoin: miter; stroke-linecap: square"/>
   </g>
   <g id="text_18">
    <!-- BlackScholesMertonModel Greeks across spot (call) -->
    <g transform="translate(165.881484 17.837812) scale(0.14 -0.14)">
     <defs>
      <path id="DejaVuSans-25" d="M 1259 2228 
L 1259 519 
L 2272 519 
Q 2781 519 3026 730 
Q 3272 941 3272 1375 
Q 3272 1813 3026 2020 
Q 2781 2228 2272 2228 
L 1259 2228 
z
M 1259 4147 
L 1259 2741 
L 2194 2741 
Q 2656 2741 2882 2914 
Q 3109 3088 3109 3444 
Q 3109 3797 2882 3972 
Q 2656 4147 2194 4147 
L 1259 4147 
z
M 628 4666 
L 2241 4666 
Q 2963 4666 3353 4366 
Q 3744 4066 3744 3513 
Q 3744 3084 3544 2831 
Q 3344 2578 2956 2516 
Q 3422 2416 3680 2098 
Q 3938 1781 3938 1306 
Q 3938 681 3513 340 
Q 3088 0 2303 0 
L 628 0 
L 628 4666 
z
" transform="scale(0.015625)"/>
      <path id="DejaVuSans-4b" d="M 3513 2113 
L 3513 0 
L 2938 0 
L 2938 2094 
Q 2938 2591 2744 2837 
Q 2550 3084 2163 3084 
Q 1697 3084 1428 2787 
Q 1159 2491 1159 1978 
L 1159 0 
L 581 0 
L 581 4863 
L 1159 4863 
L 1159 2956 
Q 1366 3272 1645 3428 
Q 1925 3584 2291 3584 
Q 2894 3584 3203 3211 
Q 3513 2838 3513 2113 
z
" transform="scale(0.015625)"/>
      <path id="DejaVuSans-52" d="M 1959 3097 
Q 1497 3097 1228 2736 
Q 959 2375 959 1747 
Q 959 1119 1226 758 
Q 1494 397 1959 397 
Q 2419 397 2687 759 
Q 2956 1122 2956 1747 
Q 2956 2369 2687 2733 
Q 2419 3097 1959 3097 
z
M 1959 3584 
Q 2709 3584 3137 3096 
Q 3566 2609 3566 1747 
Q 3566 888 3137 398 
Q 2709 -91 1959 -91 
Q 1206 -91 779 398 
Q 353 888 353 1747 
Q 353 2609 779 3096 
Q 1206 3584 1959 3584 
z
" transform="scale(0.015625)"/>
      <path id="DejaVuSans-56" d="M 2834 3397 
L 2834 2853 
Q 2591 2978 2328 3040 
Q 2066 3103 1784 3103 
Q 1356 3103 1142 2972 
Q 928 2841 928 2578 
Q 928 2378 1081 2264 
Q 1234 2150 1697 2047 
L 1894 2003 
Q 2506 1872 2764 1633 
Q 3022 1394 3022 966 
Q 3022 478 2636 193 
Q 2250 -91 1575 -91 
Q 1294 -91 989 -36 
Q 684 19 347 128 
L 347 722 
Q 666 556 975 473 
Q 1284 391 1588 391 
Q 1994 391 2212 530 
Q 2431 669 2431 922 
Q 2431 1156 2273 1281 
Q 2116 1406 1581 1522 
L 1381 1569 
Q 847 1681 609 1914 
Q 372 2147 372 2553 
Q 372 3047 722 3315 
Q 1072 3584 1716 3584 
Q 2034 3584 2315 3537 
Q 2597 3491 2834 3397 
z
" transform="scale(0.015625)"/>
      <path id="DejaVuSans-30" d="M 628 4666 
L 1569 4666 
L 2759 1491 
L 3956 4666 
L 4897 4666 
L 4897 0 
L 4281 0 
L 4281 4097 
L 3078 897 
L 2444 897 
L 1241 4097 
L 1241 0 
L 628 0 
L 628 4666 
z
" transform="scale(0.015625)"/>
      <path id="DejaVuSans-b" d="M 1984 4856 
Q 1566 4138 1362 3434 
Q 1159 2731 1159 2009 
Q 1159 1288 1364 580 
Q 1569 -128 1984 -844 
L 1484 -844 
Q 1016 -109 783 600 
Q 550 1309 550 2009 
Q 550 2706 781 3412 
Q 1013 4119 1484 4856 
L 1984 4856 
z
" transform="scale(0.015625)"/>
      <path id="DejaVuSans-c" d="M 513 4856 
L 1013 4856 
Q 1481 4119 1714 3412 
Q 1947 2706 1947 2009 
Q 1947 1309 1714 600 
Q 1481 -109 1013 -844 
L 513 -844 
Q 928 -128 1133 580 
Q 1338 1288 1338 2009 
Q 1338 2731 1133 3434 
Q 928 4138 513 4856 
z
" transform="scale(0.015625)"/>
     </defs>
     <use xlink:href="#DejaVuSans-25"/>
     <use xlink:href="#DejaVuSans-4f" transform="translate(68.609375 0)"/>
     <use xlink:href="#DejaVuSans-44" transform="translate(96.390625 0)"/>
     <use xlink:href="#DejaVuSans-46" transform="translate(157.671875 0)"/>
     <use xlink:href="#DejaVuSans-4e" transform="translate(212.65625 0)"/>
     <use xlink:href="#DejaVuSans-36" transform="translate(270.5625 0)"/>
     <use xlink:href="#DejaVuSans-46" transform="translate(334.046875 0)"/>
     <use xlink:href="#DejaVuSans-4b" transform="translate(389.03125 0)"/>
     <use xlink:href="#DejaVuSans-52" transform="translate(452.40625 0)"/>
     <use xlink:href="#DejaVuSans-4f" transform="translate(513.59375 0)"/>
     <use xlink:href="#DejaVuSans-48" transform="translate(541.375 0)"/>
     <use xlink:href="#DejaVuSans-56" transform="translate(602.90625 0)"/>
     <use xlink:href="#DejaVuSans-30" transform="translate(655 0)"/>
     <use xlink:href="#DejaVuSans-48" transform="translate(741.28125 0)"/>
     <use xlink:href="#DejaVuSans-55" transform="translate(802.8125 0)"/>
     <use xlink:href="#DejaVuSans-57" transform="translate(843.921875 0)"/>
     <use xlink:href="#DejaVuSans-52" transform="translate(883.125 0)"/>
     <use xlink:href="#DejaVuSans-51" transform="translate(944.3125 0)"/>
     <use xlink:href="#DejaVuSans-30" transform="translate(1007.6875 0)"/>
     <use xlink:href="#DejaVuSans-52" transform="translate(1093.96875 0)"/>
     <use xlink:href="#DejaVuSans-47" transform="translate(1155.15625 0)"/>
     <use xlink:href="#DejaVuSans-48" transform="translate(1218.640625 0)"/>
     <use xlink:href="#DejaVuSans-4f" transform="translate(1280.171875 0)"/>
     <use xlink:href="#DejaVuSans-3" transform="translate(1307.953125 0)"/>
     <use xlink:href="#DejaVuSans-2a" transform="translate(1339.734375 0)"/>
     <use xlink:href="#DejaVuSans-55" transform="translate(1417.21875 0)"/>
     <use xlink:href="#DejaVuSans-48" transform="translate(1456.125 0)"/>
     <use xlink:href="#DejaVuSans-48" transform="translate(1517.65625 0)"/>
     <use xlink:href="#DejaVuSans-4e" transform="translate(1579.1875 0)"/>
     <use xlink:href="#DejaVuSans-56" transform="translate(1637.09375 0)"/>
     <use xlink:href="#DejaVuSans-3" transform="translate(1689.1875 0)"/>
     <use xlink:href="#DejaVuSans-44" transform="translate(1720.96875 0)"/>
     <use xlink:href="#DejaVuSans-46" transform="translate(1782.25 0)"/>
     <use xlink:href="#DejaVuSans-55" transform="translate(1837.234375 0)"/>
     <use xlink:href="#DejaVuSans-52" transform="translate(1876.140625 0)"/>
     <use xlink:href="#DejaVuSans-56" transform="translate(1937.328125 0)"/>
     <use xlink:href="#DejaVuSans-56" transform="translate(1989.421875 0)"/>
     <use xlink:href="#DejaVuSans-3" transform="translate(2041.515625 0)"/>
     <use xlink:href="#DejaVuSans-56" transform="translate(2073.296875 0)"/>
     <use xlink:href="#DejaVuSans-53" transform="translate(2125.390625 0)"/>
     <use xlink:href="#DejaVuSans-52" transform="translate(2188.875 0)"/>
     <use xlink:href="#DejaVuSans-57" transform="translate(2250.0625 0)"/>
     <use xlink:href="#DejaVuSans-3" transform="translate(2289.265625 0)"/>
     <use xlink:href="#DejaVuSans-b" transform="translate(2321.046875 0)"/>
     <use xlink:href="#DejaVuSans-46" transform="translate(2360.0625 0)"/>
     <use xlink:href="#DejaVuSans-44" transform="translate(2415.046875 0)"/>
     <use xlink:href="#DejaVuSans-4f" transform="translate(2476.328125 0)"/>
     <use xlink:href="#DejaVuSans-4f" transform="translate(2504.109375 0)"/>
     <use xlink:href="#DejaVuSans-c" transform="translate(2531.890625 0)"/>
    </g>
   </g>
   <g id="legend_1">
    <g id="patch_7">
     <path d="M 65.846094 338.19875 
L 137.332031 338.19875 
Q 139.332031 338.19875 139.332031 336.19875 
L 139.332031 202.191719 
Q 139.332031 200.191719 137.332031 200.191719 
L 65.846094 200.191719 
Q 63.846094 200.191719 63.846094 202.191719 
L 63.846094 336.19875 
Q 63.846094 338.19875 65.846094 338.19875 
z
" style="fill: #ffffff; opacity: 0.8; stroke: #cccccc; stroke-linejoin: miter"/>
    </g>
    <g id="line2d_40">
     <path d="M 67.846094 208.290156 
L 77.846094 208.290156 
L 87.846094 208.290156 
" style="fill: none; stroke: #0f4c81; stroke-width: 2.2; stroke-linecap: square"/>
    </g>
    <g id="text_19">
     <!-- Delta -->
     <g transform="translate(95.846094 211.790156) scale(0.1 -0.1)">
      <defs>
       <path id="DejaVuSans-27" d="M 1259 4147 
L 1259 519 
L 2022 519 
Q 2988 519 3436 956 
Q 3884 1394 3884 2338 
Q 3884 3275 3436 3711 
Q 2988 4147 2022 4147 
L 1259 4147 
z
M 628 4666 
L 1925 4666 
Q 3281 4666 3915 4102 
Q 4550 3538 4550 2338 
Q 4550 1131 3912 565 
Q 3275 0 1925 0 
L 628 0 
L 628 4666 
z
" transform="scale(0.015625)"/>
      </defs>
      <use xlink:href="#DejaVuSans-27"/>
      <use xlink:href="#DejaVuSans-48" transform="translate(77 0)"/>
      <use xlink:href="#DejaVuSans-4f" transform="translate(138.53125 0)"/>
      <use xlink:href="#DejaVuSans-57" transform="translate(166.3125 0)"/>
      <use xlink:href="#DejaVuSans-44" transform="translate(205.515625 0)"/>
     </g>
    </g>
    <g id="line2d_41">
     <path d="M 67.846094 223.290937 
L 77.846094 223.290937 
L 87.846094 223.290937 
" style="fill: none; stroke: #e07a5f; stroke-width: 2.2; stroke-linecap: square"/>
    </g>
    <g id="text_20">
     <!-- Gamma -->
     <g transform="translate(95.846094 226.790937) scale(0.1 -0.1)">
      <defs>
       <path id="DejaVuSans-50" d="M 3328 2828 
Q 3544 3216 3844 3400 
Q 4144 3584 4550 3584 
Q 5097 3584 5394 3201 
Q 5691 2819 5691 2113 
L 5691 0 
L 5113 0 
L 5113 2094 
Q 5113 2597 4934 2840 
Q 4756 3084 4391 3084 
Q 3944 3084 3684 2787 
Q 3425 2491 3425 1978 
L 3425 0 
L 2847 0 
L 2847 2094 
Q 2847 2600 2669 2842 
Q 2491 3084 2119 3084 
Q 1678 3084 1418 2786 
Q 1159 2488 1159 1978 
L 1159 0 
L 581 0 
L 581 3500 
L 1159 3500 
L 1159 2956 
Q 1356 3278 1631 3431 
Q 1906 3584 2284 3584 
Q 2666 3584 2933 3390 
Q 3200 3197 3328 2828 
z
" transform="scale(0.015625)"/>
      </defs>
      <use xlink:href="#DejaVuSans-2a"/>
      <use xlink:href="#DejaVuSans-44" transform="translate(77.484375 0)"/>
      <use xlink:href="#DejaVuSans-50" transform="translate(138.765625 0)"/>
      <use xlink:href="#DejaVuSans-50" transform="translate(236.171875 0)"/>
      <use xlink:href="#DejaVuSans-44" transform="translate(333.578125 0)"/>
     </g>
    </g>
    <g id="line2d_42">
     <path d="M 67.846094 238.291719 
L 77.846094 238.291719 
L 87.846094 238.291719 
" style="fill: none; stroke: #3d9970; stroke-width: 2.2; stroke-linecap: square"/>
    </g>
    <g id="text_21">
     <!-- Vega -->
     <g transform="translate(95.846094 241.791719) scale(0.1 -0.1)">
      <defs>
       <path id="DejaVuSans-39" d="M 1831 0 
L 50 4666 
L 709 4666 
L 2188 738 
L 3669 4666 
L 4325 4666 
L 2547 0 
L 1831 0 
z
" transform="scale(0.015625)"/>
      </defs>
      <use xlink:href="#DejaVuSans-39"/>
      <use xlink:href="#DejaVuSans-48" transform="translate(60.640625 0)"/>
      <use xlink:href="#DejaVuSans-4a" transform="translate(122.171875 0)"/>
      <use xlink:href="#DejaVuSans-44" transform="translate(185.65625 0)"/>
     </g>
    </g>
    <g id="line2d_43">
     <path d="M 67.846094 253.2925 
L 77.846094 253.2925 
L 87.846094 253.2925 
" style="fill: none; stroke: #6c5b7b; stroke-width: 2.2; stroke-linecap: square"/>
    </g>
    <g id="text_22">
     <!-- Theta -->
     <g transform="translate(95.846094 256.7925) scale(0.1 -0.1)">
      <defs>
       <path id="DejaVuSans-37" d="M -19 4666 
L 3928 4666 
L 3928 4134 
L 2272 4134 
L 2272 0 
L 1638 0 
L 1638 4134 
L -19 4134 
L -19 4666 
z
" transform="scale(0.015625)"/>
      </defs>
      <use xlink:href="#DejaVuSans-37"/>
      <use xlink:href="#DejaVuSans-4b" transform="translate(61.078125 0)"/>
      <use xlink:href="#DejaVuSans-48" transform="translate(124.453125 0)"/>
      <use xlink:href="#DejaVuSans-57" transform="translate(185.984375 0)"/>
      <use xlink:href="#DejaVuSans-44" transform="translate(225.1875 0)"/>
     </g>
    </g>
    <g id="line2d_44">
     <path d="M 67.846094 268.293281 
L 77.846094 268.293281 
L 87.846094 268.293281 
" style="fill: none; stroke: #2e86ab; stroke-width: 2.2; stroke-linecap: square"/>
    </g>
    <g id="text_23">
     <!-- Rho -->
     <g transform="translate(95.846094 271.793281) scale(0.1 -0.1)">
      <defs>
       <path id="DejaVuSans-35" d="M 2841 2188 
Q 3044 2119 3236 1894 
Q 3428 1669 3622 1275 
L 4263 0 
L 3584 0 
L 2988 1197 
Q 2756 1666 2539 1819 
Q 2322 1972 1947 1972 
L 1259 1972 
L 1259 0 
L 628 0 
L 628 4666 
L 2053 4666 
Q 2853 4666 3247 4331 
Q 3641 3997 3641 3322 
Q 3641 2881 3436 2590 
Q 3231 2300 2841 2188 
z
M 1259 4147 
L 1259 2491 
L 2053 2491 
Q 2509 2491 2742 2702 
Q 2975 2913 2975 3322 
Q 2975 3731 2742 3939 
Q 2509 4147 2053 4147 
L 1259 4147 
z
" transform="scale(0.015625)"/>
      </defs>
      <use xlink:href="#DejaVuSans-35"/>
      <use xlink:href="#DejaVuSans-4b" transform="translate(69.484375 0)"/>
      <use xlink:href="#DejaVuSans-52" transform="translate(132.859375 0)"/>
     </g>
    </g>
    <g id="line2d_45">
     <path d="M 67.846094 283.294062 
L 77.846094 283.294062 
L 87.846094 283.294062 
" style="fill: none; stroke: #0f4c81; stroke-width: 2.2; stroke-linecap: square"/>
    </g>
    <g id="text_24">
     <!-- Vanna -->
     <g transform="translate(95.846094 286.794062) scale(0.1 -0.1)">
      <use xlink:href="#DejaVuSans-39"/>
      <use xlink:href="#DejaVuSans-44" transform="translate(60.640625 0)"/>
      <use xlink:href="#DejaVuSans-51" transform="translate(121.921875 0)"/>
      <use xlink:href="#DejaVuSans-51" transform="translate(185.296875 0)"/>
      <use xlink:href="#DejaVuSans-44" transform="translate(248.671875 0)"/>
     </g>
    </g>
    <g id="line2d_46">
     <path d="M 67.846094 298.294844 
L 77.846094 298.294844 
L 87.846094 298.294844 
" style="fill: none; stroke: #e07a5f; stroke-width: 2.2; stroke-linecap: square"/>
    </g>
    <g id="text_25">
     <!-- Volga -->
     <g transform="translate(95.846094 301.794844) scale(0.1 -0.1)">
      <use xlink:href="#DejaVuSans-39"/>
      <use xlink:href="#DejaVuSans-52" transform="translate(60.640625 0)"/>
      <use xlink:href="#DejaVuSans-4f" transform="translate(121.828125 0)"/>
      <use xlink:href="#DejaVuSans-4a" transform="translate(149.609375 0)"/>
      <use xlink:href="#DejaVuSans-44" transform="translate(213.09375 0)"/>
     </g>
    </g>
    <g id="line2d_47">
     <path d="M 67.846094 313.295625 
L 77.846094 313.295625 
L 87.846094 313.295625 
" style="fill: none; stroke: #3d9970; stroke-width: 2.2; stroke-linecap: square"/>
    </g>
    <g id="text_26">
     <!-- Charm -->
     <g transform="translate(95.846094 316.795625) scale(0.1 -0.1)">
      <use xlink:href="#DejaVuSans-26"/>
      <use xlink:href="#DejaVuSans-4b" transform="translate(69.828125 0)"/>
      <use xlink:href="#DejaVuSans-44" transform="translate(133.203125 0)"/>
      <use xlink:href="#DejaVuSans-55" transform="translate(194.484375 0)"/>
      <use xlink:href="#DejaVuSans-50" transform="translate(233.84375 0)"/>
     </g>
    </g>
    <g id="line2d_48">
     <path d="M 67.846094 328.296406 
L 77.846094 328.296406 
L 87.846094 328.296406 
" style="fill: none; stroke-dasharray: 5.55,2.4; stroke-dashoffset: 0; stroke: #e07a5f; stroke-width: 1.5"/>
    </g>
    <g id="text_27">
     <!-- Strike -->
     <g transform="translate(95.846094 331.796406) scale(0.1 -0.1)">
      <use xlink:href="#DejaVuSans-36"/>
      <use xlink:href="#DejaVuSans-57" transform="translate(63.484375 0)"/>
      <use xlink:href="#DejaVuSans-55" transform="translate(102.6875 0)"/>
      <use xlink:href="#DejaVuSans-4c" transform="translate(143.796875 0)"/>
      <use xlink:href="#DejaVuSans-4e" transform="translate(171.578125 0)"/>
      <use xlink:href="#DejaVuSans-48" transform="translate(225.921875 0)"/>
     </g>
    </g>
   </g>
  </g>
 </g>
 <defs>
  <clipPath id="p1dc5d43974">
   <rect x="58.846094" y="23.837812" width="573.997656" height="319.360937"/>
  </clipPath>
 </defs>
</svg>
