<?xml version="1.0" encoding="utf-8" standalone="no"?>
<!DOCTYPE svg PUBLIC "-//W3C//DTD SVG 1.1//EN"
  "http://www.w3.org/Graphics/SVG/1.1/DTD/svg11.dtd">
<svg xmlns:xlink="http://www.w3.org/1999/xlink" width="640.123437pt" height="381.399531pt" viewBox="0 0 640.123437 381.399531" xmlns="http://www.w3.org/2000/svg" version="1.1">
 <metadata>
  <rdf:RDF xmlns:dc="http://purl.org/dc/elements/1.1/" xmlns:cc="http://creativecommons.org/ns#" xmlns:rdf="http://www.w3.org/1999/02/22-rdf-syntax-ns#">
   <cc:Work>
    <dc:type rdf:resource="http://purl.org/dc/dcmitype/StillImage"/>
    <dc:date>2026-07-17T04:05:12.647628</dc:date>
    <dc:format>image/svg+xml</dc:format>
    <dc:creator>
     <cc:Agent>
      <dc:title>Matplotlib v3.11.0, https://matplotlib.org/</dc:title>
     </cc:Agent>
    </dc:creator>
   </cc:Work>
  </rdf:RDF>
 </metadata>
 <defs>
  <style type="text/css">*{stroke-linejoin: round; stroke-linecap: butt}</style>
 </defs>
 <g id="figure_1">
  <g id="patch_1">
   <path d="M 0 381.399531 
L 640.123437 381.399531 
L 640.123437 0 
L 0 0 
z
" style="fill: #fafafa"/>
  </g>
  <g id="axes_1">
   <g id="patch_2">
    <path d="M 40.925781 343.19875 
L 632.923437 343.19875 
L 632.923437 23.837812 
L 40.925781 23.837812 
z
" style="fill: #fafafa"/>
   </g>
   <g id="matplotlib.axis_1">
    <g id="xtick_1">
     <g id="line2d_1">
      <path d="M 121.652734 343.19875 
L 121.652734 23.837812 
" clip-path="url(#pb0133234b9)" style="fill: none; stroke: #d0d7de; stroke-opacity: 0.65; stroke-width: 0.8; stroke-linecap: square"/>
     </g>
     <g id="line2d_2">
      <defs>
       <path id="m8d42956146" d="M 0 0 
L 0 3.5 
" style="stroke: #000000; stroke-width: 0.8"/>
      </defs>
      <g>
       <use xlink:href="#m8d42956146" x="121.652734" y="343.19875" style="stroke: #000000; stroke-width: 0.8"/>
      </g>
     </g>
     <g id="text_1">
      <!-- 60 -->
      <g transform="translate(115.290234 357.796406) scale(0.1 -0.1)">
       <defs>
        <path id="DejaVuSans-19" d="M 2113 2584 
Q 1688 2584 1439 2293 
Q 1191 2003 1191 1497 
Q 1191 994 1439 701 
Q 1688 409 2113 409 
Q 2538 409 2786 701 
Q 3034 994 3034 1497 
Q 3034 2003 2786 2293 
Q 2538 2584 2113 2584 
z
M 3366 4563 
L 3366 3988 
Q 3128 4100 2886 4159 
Q 2644 4219 2406 4219 
Q 1781 4219 1451 3797 
Q 1122 3375 1075 2522 
Q 1259 2794 1537 2939 
Q 1816 3084 2150 3084 
Q 2853 3084 3261 2657 
Q 3669 2231 3669 1497 
Q 3669 778 3244 343 
Q 2819 -91 2113 -91 
Q 1303 -91 875 529 
Q 447 1150 447 2328 
Q 447 3434 972 4092 
Q 1497 4750 2381 4750 
Q 2619 4750 2861 4703 
Q 3103 4656 3366 4563 
z
" transform="scale(0.015625)"/>
        <path id="DejaVuSans-13" d="M 2034 4250 
Q 1547 4250 1301 3770 
Q 1056 3291 1056 2328 
Q 1056 1369 1301 889 
Q 1547 409 2034 409 
Q 2525 409 2770 889 
Q 3016 1369 3016 2328 
Q 3016 3291 2770 3770 
Q 2525 4250 2034 4250 
z
M 2034 4750 
Q 2819 4750 3233 4129 
Q 3647 3509 3647 2328 
Q 3647 1150 3233 529 
Q 2819 -91 2034 -91 
Q 1250 -91 836 529 
Q 422 1150 422 2328 
Q 422 3509 836 4129 
Q 1250 4750 2034 4750 
z
" transform="scale(0.015625)"/>
       </defs>
       <use xlink:href="#DejaVuSans-19"/>
       <use xlink:href="#DejaVuSans-13" transform="translate(63.625 0)"/>
      </g>
     </g>
    </g>
    <g id="xtick_2">
     <g id="line2d_3">
      <path d="M 229.288672 343.19875 
L 229.288672 23.837812 
" clip-path="url(#pb0133234b9)" style="fill: none; stroke: #d0d7de; stroke-opacity: 0.65; stroke-width: 0.8; stroke-linecap: square"/>
     </g>
     <g id="line2d_4">
      <g>
       <use xlink:href="#m8d42956146" x="229.288672" y="343.19875" style="stroke: #000000; stroke-width: 0.8"/>
      </g>
     </g>
     <g id="text_2">
      <!-- 80 -->
      <g transform="translate(222.926172 357.796406) scale(0.1 -0.1)">
       <defs>
        <path id="DejaVuSans-1b" d="M 2034 2216 
Q 1584 2216 1326 1975 
Q 1069 1734 1069 1313 
Q 1069 891 1326 650 
Q 1584 409 2034 409 
Q 2484 409 2743 651 
Q 3003 894 3003 1313 
Q 3003 1734 2745 1975 
Q 2488 2216 2034 2216 
z
M 1403 2484 
Q 997 2584 770 2862 
Q 544 3141 544 3541 
Q 544 4100 942 4425 
Q 1341 4750 2034 4750 
Q 2731 4750 3128 4425 
Q 3525 4100 3525 3541 
Q 3525 3141 3298 2862 
Q 3072 2584 2669 2484 
Q 3125 2378 3379 2068 
Q 3634 1759 3634 1313 
Q 3634 634 3220 271 
Q 2806 -91 2034 -91 
Q 1263 -91 848 271 
Q 434 634 434 1313 
Q 434 1759 690 2068 
Q 947 2378 1403 2484 
z
M 1172 3481 
Q 1172 3119 1398 2916 
Q 1625 2713 2034 2713 
Q 2441 2713 2670 2916 
Q 2900 3119 2900 3481 
Q 2900 3844 2670 4047 
Q 2441 4250 2034 4250 
Q 1625 4250 1398 4047 
Q 1172 3844 1172 3481 
z
" transform="scale(0.015625)"/>
       </defs>
       <use xlink:href="#DejaVuSans-1b"/>
       <use xlink:href="#DejaVuSans-13" transform="translate(63.625 0)"/>
      </g>
     </g>
    </g>
    <g id="xtick_3">
     <g id="line2d_5">
      <path d="M 336.924609 343.19875 
L 336.924609 23.837812 
" clip-path="url(#pb0133234b9)" style="fill: none; stroke: #d0d7de; stroke-opacity: 0.65; stroke-width: 0.8; stroke-linecap: square"/>
     </g>
     <g id="line2d_6">
      <g>
       <use xlink:href="#m8d42956146" x="336.924609" y="343.19875" style="stroke: #000000; stroke-width: 0.8"/>
      </g>
     </g>
     <g id="text_3">
      <!-- 100 -->
      <g transform="translate(327.380859 357.796406) scale(0.1 -0.1)">
       <defs>
        <path id="DejaVuSans-14" d="M 794 531 
L 1825 531 
L 1825 4091 
L 703 3866 
L 703 4441 
L 1819 4666 
L 2450 4666 
L 2450 531 
L 3481 531 
L 3481 0 
L 794 0 
L 794 531 
z
" transform="scale(0.015625)"/>
       </defs>
       <use xlink:href="#DejaVuSans-14"/>
       <use xlink:href="#DejaVuSans-13" transform="translate(63.625 0)"/>
       <use xlink:href="#DejaVuSans-13" transform="translate(127.25 0)"/>
      </g>
     </g>
    </g>
    <g id="xtick_4">
     <g id="line2d_7">
      <path d="M 444.560547 343.19875 
L 444.560547 23.837812 
" clip-path="url(#pb0133234b9)" style="fill: none; stroke: #d0d7de; stroke-opacity: 0.65; stroke-width: 0.8; stroke-linecap: square"/>
     </g>
     <g id="line2d_8">
      <g>
       <use xlink:href="#m8d42956146" x="444.560547" y="343.19875" style="stroke: #000000; stroke-width: 0.8"/>
      </g>
     </g>
     <g id="text_4">
      <!-- 120 -->
      <g transform="translate(435.016797 357.796406) scale(0.1 -0.1)">
       <defs>
        <path id="DejaVuSans-15" d="M 1228 531 
L 3431 531 
L 3431 0 
L 469 0 
L 469 531 
Q 828 903 1448 1529 
Q 2069 2156 2228 2338 
Q 2531 2678 2651 2914 
Q 2772 3150 2772 3378 
Q 2772 3750 2511 3984 
Q 2250 4219 1831 4219 
Q 1534 4219 1204 4116 
Q 875 4013 500 3803 
L 500 4441 
Q 881 4594 1212 4672 
Q 1544 4750 1819 4750 
Q 2544 4750 2975 4387 
Q 3406 4025 3406 3419 
Q 3406 3131 3298 2873 
Q 3191 2616 2906 2266 
Q 2828 2175 2409 1742 
Q 1991 1309 1228 531 
z
" transform="scale(0.015625)"/>
       </defs>
       <use xlink:href="#DejaVuSans-14"/>
       <use xlink:href="#DejaVuSans-15" transform="translate(63.625 0)"/>
       <use xlink:href="#DejaVuSans-13" transform="translate(127.25 0)"/>
      </g>
     </g>
    </g>
    <g id="xtick_5">
     <g id="line2d_9">
      <path d="M 552.196484 343.19875 
L 552.196484 23.837812 
" clip-path="url(#pb0133234b9)" style="fill: none; stroke: #d0d7de; stroke-opacity: 0.65; stroke-width: 0.8; stroke-linecap: square"/>
     </g>
     <g id="line2d_10">
      <g>
       <use xlink:href="#m8d42956146" x="552.196484" y="343.19875" style="stroke: #000000; stroke-width: 0.8"/>
      </g>
     </g>
     <g id="text_5">
      <!-- 140 -->
      <g transform="translate(542.652734 357.796406) scale(0.1 -0.1)">
       <defs>
        <path id="DejaVuSans-17" d="M 2419 4116 
L 825 1625 
L 2419 1625 
L 2419 4116 
z
M 2253 4666 
L 3047 4666 
L 3047 1625 
L 3713 1625 
L 3713 1100 
L 3047 1100 
L 3047 0 
L 2419 0 
L 2419 1100 
L 313 1100 
L 313 1709 
L 2253 4666 
z
" transform="scale(0.015625)"/>
       </defs>
       <use xlink:href="#DejaVuSans-14"/>
       <use xlink:href="#DejaVuSans-17" transform="translate(63.625 0)"/>
       <use xlink:href="#DejaVuSans-13" transform="translate(127.25 0)"/>
      </g>
     </g>
    </g>
    <g id="text_6">
     <!-- Current underlying price -->
     <g transform="translate(275.798828 371.797187) scale(0.1 -0.1)">
      <defs>
       <path id="DejaVuSans-26" d="M 4122 4306 
L 4122 3641 
Q 3803 3938 3442 4084 
Q 3081 4231 2675 4231 
Q 1875 4231 1450 3742 
Q 1025 3253 1025 2328 
Q 1025 1406 1450 917 
Q 1875 428 2675 428 
Q 3081 428 3442 575 
Q 3803 722 4122 1019 
L 4122 359 
Q 3791 134 3420 21 
Q 3050 -91 2638 -91 
Q 1578 -91 968 557 
Q 359 1206 359 2328 
Q 359 3453 968 4101 
Q 1578 4750 2638 4750 
Q 3056 4750 3426 4639 
Q 3797 4528 4122 4306 
z
" transform="scale(0.015625)"/>
       <path id="DejaVuSans-58" d="M 544 1381 
L 544 3500 
L 1119 3500 
L 1119 1403 
Q 1119 906 1312 657 
Q 1506 409 1894 409 
Q 2359 409 2629 706 
Q 2900 1003 2900 1516 
L 2900 3500 
L 3475 3500 
L 3475 0 
L 2900 0 
L 2900 538 
Q 2691 219 2414 64 
Q 2138 -91 1772 -91 
Q 1169 -91 856 284 
Q 544 659 544 1381 
z
M 1991 3584 
L 1991 3584 
z
" transform="scale(0.015625)"/>
       <path id="DejaVuSans-55" d="M 2631 2963 
Q 2534 3019 2420 3045 
Q 2306 3072 2169 3072 
Q 1681 3072 1420 2755 
Q 1159 2438 1159 1844 
L 1159 0 
L 581 0 
L 581 3500 
L 1159 3500 
L 1159 2956 
Q 1341 3275 1631 3429 
Q 1922 3584 2338 3584 
Q 2397 3584 2469 3576 
Q 2541 3569 2628 3553 
L 2631 2963 
z
" transform="scale(0.015625)"/>
       <path id="DejaVuSans-48" d="M 3597 1894 
L 3597 1613 
L 953 1613 
Q 991 1019 1311 708 
Q 1631 397 2203 397 
Q 2534 397 2845 478 
Q 3156 559 3463 722 
L 3463 178 
Q 3153 47 2828 -22 
Q 2503 -91 2169 -91 
Q 1331 -91 842 396 
Q 353 884 353 1716 
Q 353 2575 817 3079 
Q 1281 3584 2069 3584 
Q 2775 3584 3186 3129 
Q 3597 2675 3597 1894 
z
M 3022 2063 
Q 3016 2534 2758 2815 
Q 2500 3097 2075 3097 
Q 1594 3097 1305 2825 
Q 1016 2553 972 2059 
L 3022 2063 
z
" transform="scale(0.015625)"/>
       <path id="DejaVuSans-51" d="M 3513 2113 
L 3513 0 
L 2938 0 
L 2938 2094 
Q 2938 2591 2744 2837 
Q 2550 3084 2163 3084 
Q 1697 3084 1428 2787 
Q 1159 2491 1159 1978 
L 1159 0 
L 581 0 
L 581 3500 
L 1159 3500 
L 1159 2956 
Q 1366 3272 1645 3428 
Q 1925 3584 2291 3584 
Q 2894 3584 3203 3211 
Q 3513 2838 3513 2113 
z
" transform="scale(0.015625)"/>
       <path id="DejaVuSans-57" d="M 1172 4494 
L 1172 3500 
L 2356 3500 
L 2356 3053 
L 1172 3053 
L 1172 1153 
Q 1172 725 1289 603 
Q 1406 481 1766 481 
L 2356 481 
L 2356 0 
L 1766 0 
Q 1100 0 847 248 
Q 594 497 594 1153 
L 594 3053 
L 172 3053 
L 172 3500 
L 594 3500 
L 594 4494 
L 1172 4494 
z
" transform="scale(0.015625)"/>
       <path id="DejaVuSans-3" transform="scale(0.015625)"/>
       <path id="DejaVuSans-47" d="M 2906 2969 
L 2906 4863 
L 3481 4863 
L 3481 0 
L 2906 0 
L 2906 525 
Q 2725 213 2448 61 
Q 2172 -91 1784 -91 
Q 1150 -91 751 415 
Q 353 922 353 1747 
Q 353 2572 751 3078 
Q 1150 3584 1784 3584 
Q 2172 3584 2448 3432 
Q 2725 3281 2906 2969 
z
M 947 1747 
Q 947 1113 1208 752 
Q 1469 391 1925 391 
Q 2381 391 2643 752 
Q 2906 1113 2906 1747 
Q 2906 2381 2643 2742 
Q 2381 3103 1925 3103 
Q 1469 3103 1208 2742 
Q 947 2381 947 1747 
z
" transform="scale(0.015625)"/>
       <path id="DejaVuSans-4f" d="M 603 4863 
L 1178 4863 
L 1178 0 
L 603 0 
L 603 4863 
z
" transform="scale(0.015625)"/>
       <path id="DejaVuSans-5c" d="M 2059 -325 
Q 1816 -950 1584 -1140 
Q 1353 -1331 966 -1331 
L 506 -1331 
L 506 -850 
L 844 -850 
Q 1081 -850 1212 -737 
Q 1344 -625 1503 -206 
L 1606 56 
L 191 3500 
L 800 3500 
L 1894 763 
L 2988 3500 
L 3597 3500 
L 2059 -325 
z
" transform="scale(0.015625)"/>
       <path id="DejaVuSans-4c" d="M 603 3500 
L 1178 3500 
L 1178 0 
L 603 0 
L 603 3500 
z
M 603 4863 
L 1178 4863 
L 1178 4134 
L 603 4134 
L 603 4863 
z
" transform="scale(0.015625)"/>
       <path id="DejaVuSans-4a" d="M 2906 1791 
Q 2906 2416 2648 2759 
Q 2391 3103 1925 3103 
Q 1463 3103 1205 2759 
Q 947 2416 947 1791 
Q 947 1169 1205 825 
Q 1463 481 1925 481 
Q 2391 481 2648 825 
Q 2906 1169 2906 1791 
z
M 3481 434 
Q 3481 -459 3084 -895 
Q 2688 -1331 1869 -1331 
Q 1566 -1331 1297 -1286 
Q 1028 -1241 775 -1147 
L 775 -588 
Q 1028 -725 1275 -790 
Q 1522 -856 1778 -856 
Q 2344 -856 2625 -561 
Q 2906 -266 2906 331 
L 2906 616 
Q 2728 306 2450 153 
Q 2172 0 1784 0 
Q 1141 0 747 490 
Q 353 981 353 1791 
Q 353 2603 747 3093 
Q 1141 3584 1784 3584 
Q 2172 3584 2450 3431 
Q 2728 3278 2906 2969 
L 2906 3500 
L 3481 3500 
L 3481 434 
z
" transform="scale(0.015625)"/>
       <path id="DejaVuSans-53" d="M 1159 525 
L 1159 -1331 
L 581 -1331 
L 581 3500 
L 1159 3500 
L 1159 2969 
Q 1341 3281 1617 3432 
Q 1894 3584 2278 3584 
Q 2916 3584 3314 3078 
Q 3713 2572 3713 1747 
Q 3713 922 3314 415 
Q 2916 -91 2278 -91 
Q 1894 -91 1617 61 
Q 1341 213 1159 525 
z
M 3116 1747 
Q 3116 2381 2855 2742 
Q 2594 3103 2138 3103 
Q 1681 3103 1420 2742 
Q 1159 2381 1159 1747 
Q 1159 1113 1420 752 
Q 1681 391 2138 391 
Q 2594 391 2855 752 
Q 3116 1113 3116 1747 
z
" transform="scale(0.015625)"/>
       <path id="DejaVuSans-46" d="M 3122 3366 
L 3122 2828 
Q 2878 2963 2633 3030 
Q 2388 3097 2138 3097 
Q 1578 3097 1268 2742 
Q 959 2388 959 1747 
Q 959 1106 1268 751 
Q 1578 397 2138 397 
Q 2388 397 2633 464 
Q 2878 531 3122 666 
L 3122 134 
Q 2881 22 2623 -34 
Q 2366 -91 2075 -91 
Q 1284 -91 818 406 
Q 353 903 353 1747 
Q 353 2603 823 3093 
Q 1294 3584 2113 3584 
Q 2378 3584 2631 3529 
Q 2884 3475 3122 3366 
z
" transform="scale(0.015625)"/>
      </defs>
      <use xlink:href="#DejaVuSans-26"/>
      <use xlink:href="#DejaVuSans-58" transform="translate(69.828125 0)"/>
      <use xlink:href="#DejaVuSans-55" transform="translate(133.203125 0)"/>
      <use xlink:href="#DejaVuSans-55" transform="translate(172.5625 0)"/>
      <use xlink:href="#DejaVuSans-48" transform="translate(211.46875 0)"/>
      <use xlink:href="#DejaVuSans-51" transform="translate(273 0)"/>
      <use xlink:href="#DejaVuSans-57" transform="translate(336.375 0)"/>
      <use xlink:href="#DejaVuSans-3" transform="translate(375.578125 0)"/>
      <use xlink:href="#DejaVuSans-58" transform="translate(407.359375 0)"/>
      <use xlink:href="#DejaVuSans-51" transform="translate(470.734375 0)"/>
      <use xlink:href="#DejaVuSans-47" transform="translate(534.109375 0)"/>
      <use xlink:href="#DejaVuSans-48" transform="translate(597.59375 0)"/>
      <use xlink:href="#DejaVuSans-55" transform="translate(659.125 0)"/>
      <use xlink:href="#DejaVuSans-4f" transform="translate(700.234375 0)"/>
      <use xlink:href="#DejaVuSans-5c" transform="translate(728.015625 0)"/>
      <use xlink:href="#DejaVuSans-4c" transform="translate(787.203125 0)"/>
      <use xlink:href="#DejaVuSans-51" transform="translate(814.984375 0)"/>
      <use xlink:href="#DejaVuSans-4a" transform="translate(878.359375 0)"/>
      <use xlink:href="#DejaVuSans-3" transform="translate(941.84375 0)"/>
      <use xlink:href="#DejaVuSans-53" transform="translate(973.625 0)"/>
      <use xlink:href="#DejaVuSans-55" transform="translate(1037.109375 0)"/>
      <use xlink:href="#DejaVuSans-4c" transform="translate(1078.21875 0)"/>
      <use xlink:href="#DejaVuSans-46" transform="translate(1106 0)"/>
      <use xlink:href="#DejaVuSans-48" transform="translate(1160.984375 0)"/>
     </g>
    </g>
   </g>
   <g id="matplotlib.axis_2">
    <g id="ytick_1">
     <g id="line2d_11">
      <path d="M 40.925781 328.749017 
L 632.923437 328.749017 
" clip-path="url(#pb0133234b9)" style="fill: none; stroke: #d0d7de; stroke-opacity: 0.65; stroke-width: 0.8; stroke-linecap: square"/>
     </g>
     <g id="line2d_12">
      <defs>
       <path id="m5123f0c1fc" d="M 0 0 
L -3.5 0 
" style="stroke: #000000; stroke-width: 0.8"/>
      </defs>
      <g>
       <use xlink:href="#m5123f0c1fc" x="40.925781" y="328.749017" style="stroke: #000000; stroke-width: 0.8"/>
      </g>
     </g>
     <g id="text_7">
      <!-- 0 -->
      <g transform="translate(27.563281 332.547846) scale(0.1 -0.1)">
       <use xlink:href="#DejaVuSans-13"/>
      </g>
     </g>
    </g>
    <g id="ytick_2">
     <g id="line2d_13">
      <path d="M 40.925781 273.174169 
L 632.923437 273.174169 
" clip-path="url(#pb0133234b9)" style="fill: none; stroke: #d0d7de; stroke-opacity: 0.65; stroke-width: 0.8; stroke-linecap: square"/>
     </g>
     <g id="line2d_14">
      <g>
       <use xlink:href="#m5123f0c1fc" x="40.925781" y="273.174169" style="stroke: #000000; stroke-width: 0.8"/>
      </g>
     </g>
     <g id="text_8">
      <!-- 2 -->
      <g transform="translate(27.563281 276.972997) scale(0.1 -0.1)">
       <use xlink:href="#DejaVuSans-15"/>
      </g>
     </g>
    </g>
    <g id="ytick_3">
     <g id="line2d_15">
      <path d="M 40.925781 217.599321 
L 632.923437 217.599321 
" clip-path="url(#pb0133234b9)" style="fill: none; stroke: #d0d7de; stroke-opacity: 0.65; stroke-width: 0.8; stroke-linecap: square"/>
     </g>
     <g id="line2d_16">
      <g>
       <use xlink:href="#m5123f0c1fc" x="40.925781" y="217.599321" style="stroke: #000000; stroke-width: 0.8"/>
      </g>
     </g>
     <g id="text_9">
      <!-- 4 -->
      <g transform="translate(27.563281 221.398149) scale(0.1 -0.1)">
       <use xlink:href="#DejaVuSans-17"/>
      </g>
     </g>
    </g>
    <g id="ytick_4">
     <g id="line2d_17">
      <path d="M 40.925781 162.024472 
L 632.923437 162.024472 
" clip-path="url(#pb0133234b9)" style="fill: none; stroke: #d0d7de; stroke-opacity: 0.65; stroke-width: 0.8; stroke-linecap: square"/>
     </g>
     <g id="line2d_18">
      <g>
       <use xlink:href="#m5123f0c1fc" x="40.925781" y="162.024472" style="stroke: #000000; stroke-width: 0.8"/>
      </g>
     </g>
     <g id="text_10">
      <!-- 6 -->
      <g transform="translate(27.563281 165.8233) scale(0.1 -0.1)">
       <use xlink:href="#DejaVuSans-19"/>
      </g>
     </g>
    </g>
    <g id="ytick_5">
     <g id="line2d_19">
      <path d="M 40.925781 106.449624 
L 632.923437 106.449624 
" clip-path="url(#pb0133234b9)" style="fill: none; stroke: #d0d7de; stroke-opacity: 0.65; stroke-width: 0.8; stroke-linecap: square"/>
     </g>
     <g id="line2d_20">
      <g>
       <use xlink:href="#m5123f0c1fc" x="40.925781" y="106.449624" style="stroke: #000000; stroke-width: 0.8"/>
      </g>
     </g>
     <g id="text_11">
      <!-- 8 -->
      <g transform="translate(27.563281 110.248452) scale(0.1 -0.1)">
       <use xlink:href="#DejaVuSans-1b"/>
      </g>
     </g>
    </g>
    <g id="ytick_6">
     <g id="line2d_21">
      <path d="M 40.925781 50.874776 
L 632.923437 50.874776 
" clip-path="url(#pb0133234b9)" style="fill: none; stroke: #d0d7de; stroke-opacity: 0.65; stroke-width: 0.8; stroke-linecap: square"/>
     </g>
     <g id="line2d_22">
      <g>
       <use xlink:href="#m5123f0c1fc" x="40.925781" y="50.874776" style="stroke: #000000; stroke-width: 0.8"/>
      </g>
     </g>
     <g id="text_12">
      <!-- 10 -->
      <g transform="translate(21.200781 54.673604) scale(0.1 -0.1)">
       <use xlink:href="#DejaVuSans-14"/>
       <use xlink:href="#DejaVuSans-13" transform="translate(63.625 0)"/>
      </g>
     </g>
    </g>
    <g id="text_13">
     <!-- Extrinsic value -->
     <g transform="translate(14.798438 220.200312) rotate(-90) scale(0.1 -0.1)">
      <defs>
       <path id="DejaVuSans-28" d="M 628 4666 
L 3578 4666 
L 3578 4134 
L 1259 4134 
L 1259 2753 
L 3481 2753 
L 3481 2222 
L 1259 2222 
L 1259 531 
L 3634 531 
L 3634 0 
L 628 0 
L 628 4666 
z
" transform="scale(0.015625)"/>
       <path id="DejaVuSans-5b" d="M 3513 3500 
L 2247 1797 
L 3578 0 
L 2900 0 
L 1881 1375 
L 863 0 
L 184 0 
L 1544 1831 
L 300 3500 
L 978 3500 
L 1906 2253 
L 2834 3500 
L 3513 3500 
z
" transform="scale(0.015625)"/>
       <path id="DejaVuSans-56" d="M 2834 3397 
L 2834 2853 
Q 2591 2978 2328 3040 
Q 2066 3103 1784 3103 
Q 1356 3103 1142 2972 
Q 928 2841 928 2578 
Q 928 2378 1081 2264 
Q 1234 2150 1697 2047 
L 1894 2003 
Q 2506 1872 2764 1633 
Q 3022 1394 3022 966 
Q 3022 478 2636 193 
Q 2250 -91 1575 -91 
Q 1294 -91 989 -36 
Q 684 19 347 128 
L 347 722 
Q 666 556 975 473 
Q 1284 391 1588 391 
Q 1994 391 2212 530 
Q 2431 669 2431 922 
Q 2431 1156 2273 1281 
Q 2116 1406 1581 1522 
L 1381 1569 
Q 847 1681 609 1914 
Q 372 2147 372 2553 
Q 372 3047 722 3315 
Q 1072 3584 1716 3584 
Q 2034 3584 2315 3537 
Q 2597 3491 2834 3397 
z
" transform="scale(0.015625)"/>
       <path id="DejaVuSans-59" d="M 191 3500 
L 800 3500 
L 1894 563 
L 2988 3500 
L 3597 3500 
L 2284 0 
L 1503 0 
L 191 3500 
z
" transform="scale(0.015625)"/>
       <path id="DejaVuSans-44" d="M 2194 1759 
Q 1497 1759 1228 1600 
Q 959 1441 959 1056 
Q 959 750 1161 570 
Q 1363 391 1709 391 
Q 2188 391 2477 730 
Q 2766 1069 2766 1631 
L 2766 1759 
L 2194 1759 
z
M 3341 1997 
L 3341 0 
L 2766 0 
L 2766 531 
Q 2569 213 2275 61 
Q 1981 -91 1556 -91 
Q 1019 -91 701 211 
Q 384 513 384 1019 
Q 384 1609 779 1909 
Q 1175 2209 1959 2209 
L 2766 2209 
L 2766 2266 
Q 2766 2663 2505 2880 
Q 2244 3097 1772 3097 
Q 1472 3097 1187 3025 
Q 903 2953 641 2809 
L 641 3341 
Q 956 3463 1253 3523 
Q 1550 3584 1831 3584 
Q 2591 3584 2966 3190 
Q 3341 2797 3341 1997 
z
" transform="scale(0.015625)"/>
      </defs>
      <use xlink:href="#DejaVuSans-28"/>
      <use xlink:href="#DejaVuSans-5b" transform="translate(63.1875 0)"/>
      <use xlink:href="#DejaVuSans-57" transform="translate(122.375 0)"/>
      <use xlink:href="#DejaVuSans-55" transform="translate(161.578125 0)"/>
      <use xlink:href="#DejaVuSans-4c" transform="translate(202.6875 0)"/>
      <use xlink:href="#DejaVuSans-51" transform="translate(230.46875 0)"/>
      <use xlink:href="#DejaVuSans-56" transform="translate(293.84375 0)"/>
      <use xlink:href="#DejaVuSans-4c" transform="translate(345.9375 0)"/>
      <use xlink:href="#DejaVuSans-46" transform="translate(373.71875 0)"/>
      <use xlink:href="#DejaVuSans-3" transform="translate(428.703125 0)"/>
      <use xlink:href="#DejaVuSans-59" transform="translate(460.484375 0)"/>
      <use xlink:href="#DejaVuSans-44" transform="translate(519.671875 0)"/>
      <use xlink:href="#DejaVuSans-4f" transform="translate(580.953125 0)"/>
      <use xlink:href="#DejaVuSans-58" transform="translate(608.734375 0)"/>
      <use xlink:href="#DejaVuSans-48" transform="translate(672.109375 0)"/>
     </g>
    </g>
   </g>
   <g id="line2d_23">
    <path d="M 67.834766 328.682344 
L 73.216562 328.652083 
L 78.598359 328.610282 
L 83.980156 328.553392 
L 89.361953 328.477051 
L 94.74375 328.375971 
L 100.125547 328.243831 
L 105.507344 328.073169 
L 110.889141 327.855285 
L 116.270937 327.580154 
L 121.652734 327.236361 
L 127.034531 326.811042 
L 132.416328 326.289861 
L 137.798125 325.657 
L 143.179922 324.895184 
L 148.561719 323.985722 
L 153.943516 322.908588 
L 159.325312 321.642516 
L 164.707109 320.165134 
L 170.088906 318.453105 
L 175.470703 316.482309 
L 180.8525 314.228022 
L 186.234297 311.665127 
L 191.616094 308.768327 
L 196.997891 305.512364 
L 202.379687 301.872246 
L 207.761484 297.823466 
L 213.143281 293.342222 
L 218.525078 288.405625 
L 223.906875 282.991894 
L 229.288672 277.080537 
L 234.670469 270.652517 
L 240.052266 263.690393 
L 245.434062 256.178445 
L 250.815859 248.102777 
L 256.197656 239.451391 
L 261.579453 230.214248 
L 266.96125 220.383296 
L 272.343047 209.95249 
L 277.724844 198.917777 
L 283.106641 187.27707 
L 288.488437 175.030203 
L 293.870234 162.178871 
L 299.252031 148.726549 
L 304.633828 134.678412 
L 310.015625 120.041226 
L 315.397422 104.82325 
L 320.779219 89.034117 
L 326.161016 72.684716 
L 331.542812 55.787072 
L 336.924609 38.354219 
L 342.306406 48.187506 
L 347.688203 57.514199 
L 353.07 66.349633 
L 358.451797 74.709678 
L 363.833594 82.610619 
L 369.215391 90.069056 
L 374.597187 97.101801 
L 379.978984 103.725786 
L 385.360781 109.957972 
L 390.742578 115.815271 
L 396.124375 121.314472 
L 401.506172 126.472171 
L 406.887969 131.304715 
L 412.269766 135.828149 
L 417.651562 140.058165 
L 423.033359 144.010067 
L 428.415156 147.698733 
L 433.796953 151.138589 
L 439.17875 154.343585 
L 444.560547 157.327176 
L 449.942344 160.102312 
L 455.324141 162.681425 
L 460.705937 165.076426 
L 466.087734 167.298702 
L 471.469531 169.359121 
L 476.851328 171.268032 
L 482.233125 173.035273 
L 487.614922 174.670181 
L 492.996719 176.181604 
L 498.378516 177.577909 
L 503.760312 178.866999 
L 509.142109 180.056329 
L 514.523906 181.152918 
L 519.905703 182.163367 
L 525.2875 183.093875 
L 530.669297 183.950257 
L 536.051094 184.737962 
L 541.432891 185.462087 
L 546.814687 186.127395 
L 552.196484 186.738335 
L 557.578281 187.299055 
L 562.960078 187.813419 
L 568.341875 188.285023 
L 573.723672 188.71721 
L 579.105469 189.113087 
L 584.487266 189.475536 
L 589.869062 189.80723 
L 595.250859 190.110643 
L 600.632656 190.388068 
L 606.014453 190.641625 
" clip-path="url(#pb0133234b9)" style="fill: none; stroke: #0f4c81; stroke-width: 2.2; stroke-linecap: square"/>
   </g>
   <g id="line2d_24">
    <path d="M 336.924609 343.19875 
L 336.924609 23.837812 
" clip-path="url(#pb0133234b9)" style="fill: none; stroke-dasharray: 5.55,2.4; stroke-dashoffset: 0; stroke: #e07a5f; stroke-width: 1.5"/>
   </g>
   <g id="patch_3">
    <path d="M 40.925781 343.19875 
L 40.925781 23.837812 
" style="fill: none; stroke: #d0d7de; stroke-width: 0.8; stroke-linejoin: miter; stroke-linecap: square"/>
   </g>
   <g id="patch_4">
    <path d="M 632.923437 343.19875 
L 632.923437 23.837812 
" style="fill: none; stroke: #d0d7de; stroke-width: 0.8; stroke-linejoin: miter; stroke-linecap: square"/>
   </g>
   <g id="patch_5">
    <path d="M 40.925781 343.19875 
L 632.923437 343.19875 
" style="fill: none; stroke: #d0d7de; stroke-width: 0.8; stroke-linejoin: miter; stroke-linecap: square"/>
   </g>
   <g id="patch_6">
    <path d="M 40.925781 23.837812 
L 632.923437 23.837812 
" style="fill: none; stroke: #d0d7de; stroke-width: 0.8; stroke-linejoin: miter; stroke-linecap: square"/>
   </g>
   <g id="text_14">
    <!-- BlackScholesMertonModel extrinsic value profile (call) -->
    <g transform="translate(147.976016 17.837812) scale(0.14 -0.14)">
     <defs>
      <path id="DejaVuSans-25" d="M 1259 2228 
L 1259 519 
L 2272 519 
Q 2781 519 3026 730 
Q 3272 941 3272 1375 
Q 3272 1813 3026 2020 
Q 2781 2228 2272 2228 
L 1259 2228 
z
M 1259 4147 
L 1259 2741 
L 2194 2741 
Q 2656 2741 2882 2914 
Q 3109 3088 3109 3444 
Q 3109 3797 2882 3972 
Q 2656 4147 2194 4147 
L 1259 4147 
z
M 628 4666 
L 2241 4666 
Q 2963 4666 3353 4366 
Q 3744 4066 3744 3513 
Q 3744 3084 3544 2831 
Q 3344 2578 2956 2516 
Q 3422 2416 3680 2098 
Q 3938 1781 3938 1306 
Q 3938 681 3513 340 
Q 3088 0 2303 0 
L 628 0 
L 628 4666 
z
" transform="scale(0.015625)"/>
      <path id="DejaVuSans-4e" d="M 581 4863 
L 1159 4863 
L 1159 1991 
L 2875 3500 
L 3609 3500 
L 1753 1863 
L 3688 0 
L 2938 0 
L 1159 1709 
L 1159 0 
L 581 0 
L 581 4863 
z
" transform="scale(0.015625)"/>
      <path id="DejaVuSans-36" d="M 3425 4513 
L 3425 3897 
Q 3066 4069 2747 4153 
Q 2428 4238 2131 4238 
Q 1616 4238 1336 4038 
Q 1056 3838 1056 3469 
Q 1056 3159 1242 3001 
Q 1428 2844 1947 2747 
L 2328 2669 
Q 3034 2534 3370 2195 
Q 3706 1856 3706 1288 
Q 3706 609 3251 259 
Q 2797 -91 1919 -91 
Q 1588 -91 1214 -16 
Q 841 59 441 206 
L 441 856 
Q 825 641 1194 531 
Q 1563 422 1919 422 
Q 2459 422 2753 634 
Q 3047 847 3047 1241 
Q 3047 1584 2836 1778 
Q 2625 1972 2144 2069 
L 1759 2144 
Q 1053 2284 737 2584 
Q 422 2884 422 3419 
Q 422 4038 858 4394 
Q 1294 4750 2059 4750 
Q 2388 4750 2728 4690 
Q 3069 4631 3425 4513 
z
" transform="scale(0.015625)"/>
      <path id="DejaVuSans-4b" d="M 3513 2113 
L 3513 0 
L 2938 0 
L 2938 2094 
Q 2938 2591 2744 2837 
Q 2550 3084 2163 3084 
Q 1697 3084 1428 2787 
Q 1159 2491 1159 1978 
L 1159 0 
L 581 0 
L 581 4863 
L 1159 4863 
L 1159 2956 
Q 1366 3272 1645 3428 
Q 1925 3584 2291 3584 
Q 2894 3584 3203 3211 
Q 3513 2838 3513 2113 
z
" transform="scale(0.015625)"/>
      <path id="DejaVuSans-52" d="M 1959 3097 
Q 1497 3097 1228 2736 
Q 959 2375 959 1747 
Q 959 1119 1226 758 
Q 1494 397 1959 397 
Q 2419 397 2687 759 
Q 2956 1122 2956 1747 
Q 2956 2369 2687 2733 
Q 2419 3097 1959 3097 
z
M 1959 3584 
Q 2709 3584 3137 3096 
Q 3566 2609 3566 1747 
Q 3566 888 3137 398 
Q 2709 -91 1959 -91 
Q 1206 -91 779 398 
Q 353 888 353 1747 
Q 353 2609 779 3096 
Q 1206 3584 1959 3584 
z
" transform="scale(0.015625)"/>
      <path id="DejaVuSans-30" d="M 628 4666 
L 1569 4666 
L 2759 1491 
L 3956 4666 
L 4897 4666 
L 4897 0 
L 4281 0 
L 4281 4097 
L 3078 897 
L 2444 897 
L 1241 4097 
L 1241 0 
L 628 0 
L 628 4666 
z
" transform="scale(0.015625)"/>
      <path id="DejaVuSans-13af" d="M 3431 3500 
L 3431 0 
L 2853 0 
L 2853 3053 
L 1275 3053 
L 1275 0 
L 697 0 
L 697 3053 
L 147 3053 
L 147 3500 
L 697 3500 
L 697 3744 
Q 697 4316 967 4589 
Q 1238 4863 1797 4863 
L 2375 4863 
L 2375 4384 
L 1825 4384 
Q 1516 4384 1395 4259 
Q 1275 4134 1275 3809 
L 1275 3500 
L 3431 3500 
z
M 2853 4856 
L 3431 4856 
L 3431 4128 
L 2853 4128 
L 2853 4856 
z
" transform="scale(0.015625)"/>
      <path id="DejaVuSans-b" d="M 1984 4856 
Q 1566 4138 1362 3434 
Q 1159 2731 1159 2009 
Q 1159 1288 1364 580 
Q 1569 -128 1984 -844 
L 1484 -844 
Q 1016 -109 783 600 
Q 550 1309 550 2009 
Q 550 2706 781 3412 
Q 1013 4119 1484 4856 
L 1984 4856 
z
" transform="scale(0.015625)"/>
      <path id="DejaVuSans-c" d="M 513 4856 
L 1013 4856 
Q 1481 4119 1714 3412 
Q 1947 2706 1947 2009 
Q 1947 1309 1714 600 
Q 1481 -109 1013 -844 
L 513 -844 
Q 928 -128 1133 580 
Q 1338 1288 1338 2009 
Q 1338 2731 1133 3434 
Q 928 4138 513 4856 
z
" transform="scale(0.015625)"/>
     </defs>
     <use xlink:href="#DejaVuSans-25"/>
     <use xlink:href="#DejaVuSans-4f" transform="translate(68.609375 0)"/>
     <use xlink:href="#DejaVuSans-44" transform="translate(96.390625 0)"/>
     <use xlink:href="#DejaVuSans-46" transform="translate(157.671875 0)"/>
     <use xlink:href="#DejaVuSans-4e" transform="translate(212.65625 0)"/>
     <use xlink:href="#DejaVuSans-36" transform="translate(270.5625 0)"/>
     <use xlink:href="#DejaVuSans-46" transform="translate(334.046875 0)"/>
     <use xlink:href="#DejaVuSans-4b" transform="translate(389.03125 0)"/>
     <use xlink:href="#DejaVuSans-52" transform="translate(452.40625 0)"/>
     <use xlink:href="#DejaVuSans-4f" transform="translate(513.59375 0)"/>
     <use xlink:href="#DejaVuSans-48" transform="translate(541.375 0)"/>
     <use xlink:href="#DejaVuSans-56" transform="translate(602.90625 0)"/>
     <use xlink:href="#DejaVuSans-30" transform="translate(655 0)"/>
     <use xlink:href="#DejaVuSans-48" transform="translate(741.28125 0)"/>
     <use xlink:href="#DejaVuSans-55" transform="translate(802.8125 0)"/>
     <use xlink:href="#DejaVuSans-57" transform="translate(843.921875 0)"/>
     <use xlink:href="#DejaVuSans-52" transform="translate(883.125 0)"/>
     <use xlink:href="#DejaVuSans-51" transform="translate(944.3125 0)"/>
     <use xlink:href="#DejaVuSans-30" transform="translate(1007.6875 0)"/>
     <use xlink:href="#DejaVuSans-52" transform="translate(1093.96875 0)"/>
     <use xlink:href="#DejaVuSans-47" transform="translate(1155.15625 0)"/>
     <use xlink:href="#DejaVuSans-48" transform="translate(1218.640625 0)"/>
     <use xlink:href="#DejaVuSans-4f" transform="translate(1280.171875 0)"/>
     <use xlink:href="#DejaVuSans-3" transform="translate(1307.953125 0)"/>
     <use xlink:href="#DejaVuSans-48" transform="translate(1339.734375 0)"/>
     <use xlink:href="#DejaVuSans-5b" transform="translate(1399.515625 0)"/>
     <use xlink:href="#DejaVuSans-57" transform="translate(1458.703125 0)"/>
     <use xlink:href="#DejaVuSans-55" transform="translate(1497.90625 0)"/>
     <use xlink:href="#DejaVuSans-4c" transform="translate(1539.015625 0)"/>
     <use xlink:href="#DejaVuSans-51" transform="translate(1566.796875 0)"/>
     <use xlink:href="#DejaVuSans-56" transform="translate(1630.171875 0)"/>
     <use xlink:href="#DejaVuSans-4c" transform="translate(1682.265625 0)"/>
     <use xlink:href="#DejaVuSans-46" transform="translate(1710.046875 0)"/>
     <use xlink:href="#DejaVuSans-3" transform="translate(1765.03125 0)"/>
     <use xlink:href="#DejaVuSans-59" transform="translate(1796.8125 0)"/>
     <use xlink:href="#DejaVuSans-44" transform="translate(1856 0)"/>
     <use xlink:href="#DejaVuSans-4f" transform="translate(1917.28125 0)"/>
     <use xlink:href="#DejaVuSans-58" transform="translate(1945.0625 0)"/>
     <use xlink:href="#DejaVuSans-48" transform="translate(2008.4375 0)"/>
     <use xlink:href="#DejaVuSans-3" transform="translate(2069.96875 0)"/>
     <use xlink:href="#DejaVuSans-53" transform="translate(2101.75 0)"/>
     <use xlink:href="#DejaVuSans-55" transform="translate(2165.234375 0)"/>
     <use xlink:href="#DejaVuSans-52" transform="translate(2204.140625 0)"/>
     <use xlink:href="#DejaVuSans-13af" transform="translate(2265.328125 0)"/>
     <use xlink:href="#DejaVuSans-4f" transform="translate(2328.3125 0)"/>
     <use xlink:href="#DejaVuSans-48" transform="translate(2356.09375 0)"/>
     <use xlink:href="#DejaVuSans-3" transform="translate(2417.625 0)"/>
     <use xlink:href="#DejaVuSans-b" transform="translate(2449.40625 0)"/>
     <use xlink:href="#DejaVuSans-46" transform="translate(2488.421875 0)"/>
     <use xlink:href="#DejaVuSans-44" transform="translate(2543.40625 0)"/>
     <use xlink:href="#DejaVuSans-4f" transform="translate(2604.6875 0)"/>
     <use xlink:href="#DejaVuSans-4f" transform="translate(2632.46875 0)"/>
     <use xlink:href="#DejaVuSans-c" transform="translate(2660.25 0)"/>
    </g>
   </g>
   <g id="legend_1">
    <g id="patch_7">
     <path d="M 520.559375 61.839375 
L 625.923438 61.839375 
Q 627.923438 61.839375 627.923438 59.839375 
L 627.923438 30.837812 
Q 627.923438 28.837812 625.923438 28.837812 
L 520.559375 28.837812 
Q 518.559375 28.837812 518.559375 30.837812 
L 518.559375 59.839375 
Q 518.559375 61.839375 520.559375 61.839375 
z
" style="fill: #ffffff; opacity: 0.8; stroke: #cccccc; stroke-linejoin: miter"/>
    </g>
    <g id="line2d_25">
     <path d="M 522.559375 36.93625 
L 532.559375 36.93625 
L 542.559375 36.93625 
" style="fill: none; stroke: #0f4c81; stroke-width: 2.2; stroke-linecap: square"/>
    </g>
    <g id="text_15">
     <!-- Extrinsic value -->
     <g transform="translate(550.559375 40.43625) scale(0.1 -0.1)">
      <use xlink:href="#DejaVuSans-28"/>
      <use xlink:href="#DejaVuSans-5b" transform="translate(63.1875 0)"/>
      <use xlink:href="#DejaVuSans-57" transform="translate(122.375 0)"/>
      <use xlink:href="#DejaVuSans-55" transform="translate(161.578125 0)"/>
      <use xlink:href="#DejaVuSans-4c" transform="translate(202.6875 0)"/>
      <use xlink:href="#DejaVuSans-51" transform="translate(230.46875 0)"/>
      <use xlink:href="#DejaVuSans-56" transform="translate(293.84375 0)"/>
      <use xlink:href="#DejaVuSans-4c" transform="translate(345.9375 0)"/>
      <use xlink:href="#DejaVuSans-46" transform="translate(373.71875 0)"/>
      <use xlink:href="#DejaVuSans-3" transform="translate(428.703125 0)"/>
      <use xlink:href="#DejaVuSans-59" transform="translate(460.484375 0)"/>
      <use xlink:href="#DejaVuSans-44" transform="translate(519.671875 0)"/>
      <use xlink:href="#DejaVuSans-4f" transform="translate(580.953125 0)"/>
      <use xlink:href="#DejaVuSans-58" transform="translate(608.734375 0)"/>
      <use xlink:href="#DejaVuSans-48" transform="translate(672.109375 0)"/>
     </g>
    </g>
    <g id="line2d_26">
     <path d="M 522.559375 51.937031 
L 532.559375 51.937031 
L 542.559375 51.937031 
" style="fill: none; stroke-dasharray: 5.55,2.4; stroke-dashoffset: 0; stroke: #e07a5f; stroke-width: 1.5"/>
    </g>
    <g id="text_16">
     <!-- Strike -->
     <g transform="translate(550.559375 55.437031) scale(0.1 -0.1)">
      <use xlink:href="#DejaVuSans-36"/>
      <use xlink:href="#DejaVuSans-57" transform="translate(63.484375 0)"/>
      <use xlink:href="#DejaVuSans-55" transform="translate(102.6875 0)"/>
      <use xlink:href="#DejaVuSans-4c" transform="translate(143.796875 0)"/>
      <use xlink:href="#DejaVuSans-4e" transform="translate(171.578125 0)"/>
      <use xlink:href="#DejaVuSans-48" transform="translate(225.921875 0)"/>
     </g>
    </g>
   </g>
  </g>
 </g>
 <defs>
  <clipPath id="pb0133234b9">
   <rect x="40.925781" y="23.837812" width="591.997656" height="319.360937"/>
  </clipPath>
 </defs>
</svg>
